G04*
G04 #@! TF.GenerationSoftware,Altium Limited,Altium Designer,26.3.0 (6)*
G04*
G04 Layer_Color=16711935*
%FSLAX25Y25*%
%MOIN*%
G70*
G04*
G04 #@! TF.SameCoordinates,8962AE64-8B79-459F-B45C-7CE8C08CF215*
G04*
G04*
G04 #@! TF.FilePolarity,Negative*
G04*
G01*
G75*
%ADD39C,0.00000*%
%ADD52C,0.06324*%
%ADD53R,0.06324X0.06324*%
%ADD54C,0.04828*%
G04:AMPARAMS|DCode=55|XSize=39.37mil|YSize=70.87mil|CornerRadius=19.68mil|HoleSize=0mil|Usage=FLASHONLY|Rotation=270.000|XOffset=0mil|YOffset=0mil|HoleType=Round|Shape=RoundedRectangle|*
%AMROUNDEDRECTD55*
21,1,0.03937,0.03150,0,0,270.0*
21,1,0.00000,0.07087,0,0,270.0*
1,1,0.03937,-0.01575,0.00000*
1,1,0.03937,-0.01575,0.00000*
1,1,0.03937,0.01575,0.00000*
1,1,0.03937,0.01575,0.00000*
%
%ADD55ROUNDEDRECTD55*%
G04:AMPARAMS|DCode=56|XSize=39.37mil|YSize=86.61mil|CornerRadius=19.68mil|HoleSize=0mil|Usage=FLASHONLY|Rotation=270.000|XOffset=0mil|YOffset=0mil|HoleType=Round|Shape=RoundedRectangle|*
%AMROUNDEDRECTD56*
21,1,0.03937,0.04724,0,0,270.0*
21,1,0.00000,0.08661,0,0,270.0*
1,1,0.03937,-0.02362,0.00000*
1,1,0.03937,-0.02362,0.00000*
1,1,0.03937,0.02362,0.00000*
1,1,0.03937,0.02362,0.00000*
%
%ADD56ROUNDEDRECTD56*%
%ADD57R,0.04828X0.04828*%
%ADD58C,0.02662*%
D39*
X35549Y46700D02*
G03*
X35549Y46700I-2449J0D01*
G01*
Y51700D02*
G03*
X35549Y51700I-2449J0D01*
G01*
Y56700D02*
G03*
X35549Y56700I-2449J0D01*
G01*
D52*
X36100Y95500D02*
D03*
X56100D02*
D03*
X66100D02*
D03*
X76100D02*
D03*
X86100D02*
D03*
X106100D02*
D03*
X116100D02*
D03*
X126100D02*
D03*
X136100D02*
D03*
X146100D02*
D03*
X156100D02*
D03*
X166100D02*
D03*
X176100D02*
D03*
X186100D02*
D03*
X196100D02*
D03*
X206100D02*
D03*
X216100D02*
D03*
X226100D02*
D03*
X236100D02*
D03*
X246100D02*
D03*
X256100D02*
D03*
X96100D02*
D03*
X46100D02*
D03*
X256600Y5300D02*
D03*
X36600D02*
D03*
X96600D02*
D03*
X246600D02*
D03*
X236600D02*
D03*
X226600D02*
D03*
X216600D02*
D03*
X206600D02*
D03*
X196600D02*
D03*
X186600D02*
D03*
X176600D02*
D03*
X166600D02*
D03*
X156600D02*
D03*
X146600D02*
D03*
X136600D02*
D03*
X126600D02*
D03*
X116600D02*
D03*
X106600D02*
D03*
X86600D02*
D03*
X76600D02*
D03*
X56600D02*
D03*
X46600D02*
D03*
X66600D02*
D03*
D53*
X266100Y95500D02*
D03*
X266600Y5300D02*
D03*
D54*
X144200Y49600D02*
D03*
D55*
X25348Y99216D02*
D03*
Y65200D02*
D03*
X24821Y38208D02*
D03*
Y4192D02*
D03*
D56*
X9600Y99216D02*
D03*
Y65200D02*
D03*
X9072Y38208D02*
D03*
Y4192D02*
D03*
D57*
X138700Y49600D02*
D03*
D58*
X52700Y87900D02*
D03*
M02*
