G04*
G04 #@! TF.GenerationSoftware,Altium Limited,Altium Designer,26.3.0 (6)*
G04*
G04 Layer_Physical_Order=4*
G04 Layer_Color=16711680*
%FSLAX25Y25*%
%MOIN*%
G70*
G04*
G04 #@! TF.SameCoordinates,8962AE64-8B79-459F-B45C-7CE8C08CF215*
G04*
G04*
G04 #@! TF.FilePolarity,Positive*
G04*
G01*
G75*
G04:AMPARAMS|DCode=55|XSize=39.37mil|YSize=70.87mil|CornerRadius=19.68mil|HoleSize=0mil|Usage=FLASHONLY|Rotation=270.000|XOffset=0mil|YOffset=0mil|HoleType=Round|Shape=RoundedRectangle|*
%AMROUNDEDRECTD55*
21,1,0.03937,0.03150,0,0,270.0*
21,1,0.00000,0.07087,0,0,270.0*
1,1,0.03937,-0.01575,0.00000*
1,1,0.03937,-0.01575,0.00000*
1,1,0.03937,0.01575,0.00000*
1,1,0.03937,0.01575,0.00000*
%
%ADD55ROUNDEDRECTD55*%
G04:AMPARAMS|DCode=56|XSize=39.37mil|YSize=86.61mil|CornerRadius=19.68mil|HoleSize=0mil|Usage=FLASHONLY|Rotation=270.000|XOffset=0mil|YOffset=0mil|HoleType=Round|Shape=RoundedRectangle|*
%AMROUNDEDRECTD56*
21,1,0.03937,0.04724,0,0,270.0*
21,1,0.00000,0.08661,0,0,270.0*
1,1,0.03937,-0.02362,0.00000*
1,1,0.03937,-0.02362,0.00000*
1,1,0.03937,0.02362,0.00000*
1,1,0.03937,0.02362,0.00000*
%
%ADD56ROUNDEDRECTD56*%
%ADD60C,0.00600*%
%ADD63C,0.02000*%
%ADD64C,0.06024*%
%ADD65R,0.06024X0.06024*%
%ADD66C,0.04528*%
%ADD67C,0.04500*%
%ADD68R,0.04528X0.04528*%
%ADD69C,0.02362*%
%ADD70C,0.02400*%
D55*
X25348Y99216D02*
D03*
Y65200D02*
D03*
X24821Y38208D02*
D03*
Y4192D02*
D03*
D56*
X9600Y99216D02*
D03*
Y65200D02*
D03*
X9072Y38208D02*
D03*
Y4192D02*
D03*
D60*
X122400Y69200D02*
X178800D01*
X201506Y64586D02*
X203092Y63000D01*
X96100Y95500D02*
X122400Y69200D01*
X203092Y63000D02*
X220200D01*
X183414Y64586D02*
X201506D01*
X178800Y69200D02*
X183414Y64586D01*
X236100Y94500D02*
Y95500D01*
Y94500D02*
X238600Y92000D01*
X242400D01*
X243723Y90677D02*
X246369Y88032D01*
X249084Y73923D02*
Y85316D01*
X242400Y92000D02*
X243723Y90677D01*
X246369Y88032D02*
X249084Y85316D01*
X195100Y86700D02*
X199100Y82700D01*
X215863Y80109D02*
X223600D01*
X166100Y95500D02*
X171400Y90200D01*
X213272Y82700D02*
X215863Y80109D01*
X223600D02*
X225655Y78054D01*
X185691Y86700D02*
X195100D01*
X225655Y73755D02*
Y78054D01*
X171400Y90200D02*
X182191D01*
X199100Y82700D02*
X213272D01*
X182191Y90200D02*
X185691Y86700D01*
X194272Y84700D02*
X198272Y80700D01*
X221932Y78109D02*
X222517Y77523D01*
X168572Y90200D02*
X170572Y88200D01*
X198272Y80700D02*
X212443D01*
X222517Y71200D02*
Y77523D01*
X156100Y95500D02*
X161400Y90200D01*
X170572Y88200D02*
X181362D01*
X184862Y84700D02*
X194272D01*
X161400Y90200D02*
X168572D01*
X181362Y88200D02*
X184862Y84700D01*
X215034Y78109D02*
X221932D01*
X212443Y80700D02*
X215034Y78109D01*
X189046Y74837D02*
X190363D01*
X187028Y76855D02*
X189046Y74837D01*
X190363D02*
X190600Y74600D01*
X144745Y76855D02*
X187028D01*
X126100Y95500D02*
X144745Y76855D01*
X203026Y68598D02*
X203038Y68586D01*
X241572Y90000D02*
X245691Y85880D01*
X241918Y67700D02*
X245424Y71205D01*
X245691Y73699D02*
Y85880D01*
X245424Y73432D02*
X245691Y73699D01*
X197874Y68598D02*
X203026D01*
X206806Y68586D02*
X207692Y67700D01*
X187802Y68598D02*
X197874D01*
X203038Y68586D02*
X206806D01*
X197874Y68598D02*
X197886Y68586D01*
X185500Y70900D02*
X187802Y68598D01*
X231600Y90000D02*
X241572D01*
X207692Y67700D02*
X241918D01*
X245424Y71205D02*
Y73432D01*
X226100Y95500D02*
X231600Y90000D01*
X228572Y90200D02*
X230772Y88000D01*
X239800D02*
X242387Y85413D01*
Y71987D02*
Y85413D01*
X216100Y95500D02*
X221400Y90200D01*
X230772Y88000D02*
X239800D01*
X221400Y90200D02*
X228572D01*
X233714Y84000D02*
X235600Y82114D01*
X202900Y88700D02*
X217060D01*
X196100Y95500D02*
X202900Y88700D01*
X226100Y86200D02*
X228300Y84000D01*
X235600Y71700D02*
Y82114D01*
X228300Y84000D02*
X233714D01*
X217060Y88700D02*
X219560Y86200D01*
X226100D01*
X186519Y88700D02*
X197243D01*
X224534Y82109D02*
X229100Y77543D01*
X183019Y92200D02*
X186519Y88700D01*
X179400Y92200D02*
X183019D01*
X176100Y95500D02*
X179400Y92200D01*
X197243Y88700D02*
X201243Y84700D01*
X214100D02*
X216691Y82109D01*
X201243Y84700D02*
X214100D01*
X216691Y82109D02*
X224534D01*
X229100Y72200D02*
Y77543D01*
X193100Y82700D02*
X201100Y74700D01*
X146100Y95500D02*
X150612Y90988D01*
X184034Y82700D02*
X193100D01*
X157312Y90988D02*
X161100Y87200D01*
X168743D01*
X201100Y74700D02*
X218600D01*
X180534Y86200D02*
X184034Y82700D01*
X168743Y87200D02*
X169743Y86200D01*
X150612Y90988D02*
X157312D01*
X169743Y86200D02*
X180534D01*
X148072Y90700D02*
X154572Y84200D01*
X213400Y72700D02*
X215600Y70500D01*
X179706Y84200D02*
X183206Y80700D01*
X200272Y72700D02*
X213400D01*
X136100Y95500D02*
X140900Y90700D01*
X154572Y84200D02*
X179706D01*
X140900Y90700D02*
X148072D01*
X183206Y80700D02*
X192271D01*
X200272Y72700D01*
X115600Y66000D02*
X177000D01*
X181761Y61239D01*
X86100Y95500D02*
X115600Y66000D01*
X181761Y61239D02*
X201061D01*
X84314Y91188D02*
X84353D01*
X82802Y92700D02*
X84314Y91188D01*
X81788Y93714D02*
X82802Y92700D01*
X84353Y91188D02*
X88100Y87441D01*
X90619Y84922D01*
X81002Y94539D02*
X81788Y93753D01*
Y93714D02*
Y93753D01*
X90619Y82953D02*
Y84922D01*
X77061Y94539D02*
X81002D01*
X90619Y82953D02*
X111972Y61600D01*
X120692D01*
X122192Y63100D02*
X177072D01*
X202171Y58558D02*
X203313Y59700D01*
X120692Y61600D02*
X122192Y63100D01*
X181613Y58558D02*
X202171D01*
X76100Y95500D02*
X77061Y94539D01*
X177072Y63100D02*
X181613Y58558D01*
X203313Y59700D02*
X219400D01*
X198072Y90700D02*
X202072Y86700D01*
X215100D01*
X217691Y84109D01*
X186100Y95500D02*
X190900Y90700D01*
X217691Y84109D02*
X225363D01*
X227954Y81518D01*
X230082D02*
X232600Y79000D01*
Y74200D02*
Y79000D01*
X190900Y90700D02*
X198072D01*
X227954Y81518D02*
X230082D01*
X189776Y71279D02*
X193821D01*
X116100Y95500D02*
X136745Y74855D01*
X186200D01*
X189776Y71279D01*
X202334Y66586D02*
X203219Y65701D01*
X129400Y72200D02*
X179500D01*
X205899Y65701D02*
X205900Y65700D01*
X185114Y66586D02*
X202334D01*
X106100Y95500D02*
X129400Y72200D01*
X179500D02*
X185114Y66586D01*
X203219Y65701D02*
X205899D01*
X165931Y56200D02*
X215093D01*
X216746Y54546D01*
X54600Y63700D02*
X56000Y62300D01*
X163095Y53364D02*
X165931Y56200D01*
X66100Y83700D02*
Y84850D01*
X56000Y62300D02*
X73892D01*
X66100Y84850D02*
Y95500D01*
X73892Y62300D02*
X77992Y58200D01*
X86936Y53364D02*
X163095D01*
X82100Y58200D02*
X86936Y53364D01*
X77992Y58200D02*
X82100D01*
X54600Y72200D02*
X66100Y83700D01*
X54600Y63700D02*
Y72200D01*
X206100Y95500D02*
X210612Y90988D01*
X237214Y86000D02*
X239100Y84114D01*
X217600Y90988D02*
X220388Y88200D01*
X210612Y90988D02*
X217600D01*
X229300Y86000D02*
X237214D01*
X220388Y88200D02*
X227100D01*
X229300Y86000D01*
X239100Y74200D02*
Y84114D01*
X164314Y45700D02*
X171814Y53200D01*
X174600D01*
X54100Y45700D02*
X164314D01*
X34600Y26200D02*
X54100Y45700D01*
X58100Y43700D02*
X165143D01*
X171881Y46481D02*
X175100Y49700D01*
X165143Y43700D02*
X167924Y46481D01*
X41100Y26700D02*
X58100Y43700D01*
X167924Y46481D02*
X171881D01*
X69781Y84381D02*
X74081D01*
X79600Y89900D01*
X201417Y14300D02*
X201463D01*
X106600Y5300D02*
X125000Y23700D01*
X195200Y48300D02*
X196339Y49439D01*
X242000Y10700D02*
Y10714D01*
X138714Y19514D02*
X174400D01*
X77100Y27700D02*
X91100Y41700D01*
X253112Y37309D02*
X257600Y32821D01*
X223100Y46200D02*
X224958Y44342D01*
X235808Y22586D02*
Y28292D01*
X200013Y43842D02*
X218371D01*
X219060Y15700D02*
X220472Y17112D01*
X187692Y44300D02*
X190200Y41792D01*
X228618Y17112D02*
X233506Y22000D01*
X180401Y48300D02*
X180700D01*
X133000Y21700D02*
X173600D01*
X171615Y28200D02*
X180615Y37200D01*
X194200Y35200D02*
X200161Y41161D01*
X206519Y13700D02*
X219888D01*
X256233Y12333D02*
X262051Y18151D01*
X63708Y64300D02*
X75008D01*
X181986Y41400D02*
X186800D01*
X112900Y64600D02*
Y64700D01*
X228200Y19600D02*
X232362Y23762D01*
X242000Y10714D02*
X242586Y11300D01*
X196339Y49439D02*
Y50439D01*
X183100Y31200D02*
X197600D01*
X167608Y39700D02*
X170389Y42481D01*
X222183Y13112D02*
X230274D01*
X108672Y30200D02*
X170786D01*
X174730Y39800D02*
X179141Y44212D01*
X57100Y15800D02*
X91443D01*
X107843Y32200D02*
X169958D01*
X136600Y5300D02*
X137290Y5990D01*
X182400Y16200D02*
X200488D01*
X231983Y11112D02*
X236872Y16000D01*
X184215Y26500D02*
X195680D01*
X198750Y28480D02*
X199970Y29700D01*
X91100Y41700D02*
X165971D01*
X60919Y67089D02*
X63708Y64300D01*
X188520Y46300D02*
X190439Y44381D01*
X245816Y11300D02*
X254135Y19620D01*
X46919Y80519D02*
X51100Y84700D01*
X173754Y44481D02*
X179573Y50300D01*
X179141Y44212D02*
X179141D01*
X233506Y22000D02*
X235222D01*
X151814Y17514D02*
X175229D01*
X253633Y12333D02*
X256233D01*
X154500Y15300D02*
X175843D01*
X177500Y11300D02*
X182400Y16200D01*
X217372Y19700D02*
X219272Y21600D01*
X212200Y11700D02*
X220772D01*
X246600Y5300D02*
X253633Y12333D01*
X116600Y5300D02*
X133000Y21700D01*
X242586Y11300D02*
X245816D01*
X204034Y19700D02*
X217372D01*
X200488Y16200D02*
X203488Y19200D01*
X93881Y63200D02*
X105692D01*
X125800Y6600D02*
X138714Y19514D01*
X91443Y15800D02*
X107843Y32200D01*
X122728Y57600D02*
X123828Y58700D01*
X216543Y21700D02*
X218443Y23600D01*
X86600Y5300D02*
X109500Y28200D01*
X46600Y5300D02*
X57100Y15800D01*
X224700Y23600D02*
X225662Y24562D01*
X199920Y26500D02*
X201120Y27700D01*
X225662Y24562D02*
Y33159D01*
X181443Y35200D02*
X194200D01*
X201120Y27700D02*
X216301D01*
X227372Y21600D02*
X229008Y23236D01*
X140290Y5990D02*
X151814Y17514D01*
X196529Y28480D02*
X198750D01*
X199390Y6731D02*
X199550D01*
X181229Y46300D02*
X188520D01*
X239900Y18000D02*
X242408Y20508D01*
X236600Y5300D02*
X242000Y10700D01*
X224958Y41642D02*
Y44342D01*
X235222Y22000D02*
X235808Y22586D01*
X224958Y41642D02*
X229291Y37309D01*
X75008Y64300D02*
X79089Y60219D01*
X65000Y13700D02*
X92172D01*
X163396Y60940D02*
X164981Y59355D01*
X196542Y33842D02*
X197168Y34468D01*
X203534Y19200D02*
X204034Y19700D01*
X169958Y32200D02*
X181158Y43400D01*
X79089Y60219D02*
X90900D01*
X96640Y5260D02*
X117580Y26200D01*
X109500Y28200D02*
X171615D01*
X223012Y11112D02*
X231983D01*
X77100Y25492D02*
Y27700D01*
X200161Y41161D02*
X217261D01*
X257600Y27608D02*
Y32821D01*
X193372Y37200D02*
X200013Y43842D01*
X242408Y20508D02*
Y28292D01*
X205691Y15700D02*
X219060D01*
X197724Y44381D02*
X199543Y46200D01*
X121900Y59600D02*
X123240Y60940D01*
X202191Y12200D02*
X205691Y15700D01*
X218962Y30362D02*
Y32959D01*
X101800Y75800D02*
X112900Y64700D01*
X194852Y24500D02*
X194872Y24480D01*
X219016Y25600D02*
X222308Y28892D01*
X175229Y17514D02*
X184215Y26500D01*
X60919Y67089D02*
Y75519D01*
X201463Y14300D02*
X204863Y17700D01*
X184900Y43400D02*
X185800Y44300D01*
X232362Y23762D02*
Y32859D01*
X199970Y29700D02*
X213914D01*
X245762Y21034D02*
Y32559D01*
X230274Y13112D02*
X235162Y18000D01*
X196529Y33842D02*
X196542D01*
X175800Y6600D02*
X183400Y14200D01*
X213914Y29700D02*
X216100Y31886D01*
X170500Y11300D02*
X177500D01*
X195700Y26480D02*
X199578D01*
X36444Y82200D02*
X38125Y80519D01*
X218200Y17700D02*
X220100Y19600D01*
X199599Y26500D02*
X199920D01*
X244900Y14000D02*
X249108Y18208D01*
X217200Y5300D02*
X223012Y11112D01*
X117580Y26200D02*
X172443D01*
X218443Y23600D02*
X224700D01*
X165971Y41700D02*
X168752Y44481D01*
X199543Y46200D02*
X223100D01*
X197959Y5300D02*
X199390Y6731D01*
X165800Y6600D02*
X170500Y11300D01*
X170786Y30200D02*
X181986Y41400D01*
X220772Y11700D02*
X222183Y13112D01*
X238576Y20000D02*
X239162Y20586D01*
X204863Y17700D02*
X218200D01*
X179573Y50300D02*
X192014D01*
X199550Y6731D02*
X206519Y13700D01*
X60919Y75519D02*
X65100Y79700D01*
X200427Y24500D02*
X200758D01*
X254135Y19620D02*
X259120D01*
X168752Y44481D02*
X173754D01*
X239162Y20586D02*
Y32559D01*
X185800Y44300D02*
X187692D01*
X101800Y75800D02*
Y75900D01*
X199660Y18200D02*
X203160Y21700D01*
X137290Y5990D02*
X140290D01*
X196339Y50439D02*
X196600Y50700D01*
X192014Y50300D02*
X192600Y50886D01*
X220100Y19600D02*
X228200D01*
X171500Y39800D02*
X174730D01*
X179141Y44212D02*
X181229Y46300D01*
X220472Y17112D02*
X228618D01*
X109292Y59600D02*
X121900D01*
X81100Y25992D02*
X94808Y39700D01*
X90900Y60219D02*
X93881Y63200D01*
X194872Y24480D02*
X200407D01*
X219272Y21600D02*
X227372D01*
X190917Y12200D02*
X202191D01*
X164600Y13300D02*
X176672D01*
X219713Y42500D02*
X221700D01*
X235162Y18000D02*
X239900D01*
X201858Y25600D02*
X219016D01*
X216100Y31886D02*
Y34900D01*
X105692Y63200D02*
X109292Y59600D01*
X195680Y26500D02*
X195700Y26480D01*
X183400Y14200D02*
X201317D01*
X180700Y48300D02*
X195200D01*
X158241Y6941D02*
X164600Y13300D01*
X101800Y75900D02*
X102061Y75639D01*
X123240Y60940D02*
X163396D01*
X229291Y37309D02*
X253112D01*
X207100Y6600D02*
X212200Y11700D01*
X203488Y19200D02*
X203534D01*
X175843Y15300D02*
X185043Y24500D01*
X125000Y23700D02*
X172772D01*
X197600Y31200D02*
X197639Y31161D01*
X185043Y24500D02*
X194852D01*
X94808Y39700D02*
X167608D01*
X65100Y79700D02*
X69781Y84381D01*
X240728Y16000D02*
X245762Y21034D01*
X170389Y42481D02*
X174582D01*
X200407Y24480D02*
X200427Y24500D01*
X183386Y28500D02*
X196508D01*
X155800Y6600D02*
X156693Y7492D01*
X181158Y43400D02*
X184900D01*
X219888Y13700D02*
X221300Y15112D01*
X262051Y18151D02*
Y23158D01*
X200758Y24500D02*
X201858Y25600D01*
X249108Y18208D02*
Y28192D01*
X234334Y20000D02*
X238576D01*
X181572Y18200D02*
X199660D01*
X195887Y33200D02*
X196529Y33842D01*
X107500Y57600D02*
X122728D01*
X158600Y58700D02*
X160600Y56700D01*
X174582Y42481D02*
X180401Y48300D01*
X180700D02*
X180700Y48300D01*
X185800Y7083D02*
X190917Y12200D01*
X218371Y43842D02*
X219713Y42500D01*
X105000Y60100D02*
X107500Y57600D01*
X236872Y16000D02*
X240728D01*
X123828Y58700D02*
X158600D01*
X38125Y80519D02*
X46919D01*
X237700Y14000D02*
X244900D01*
X172443Y26200D02*
X181443Y35200D01*
X157244Y6941D02*
X158241D01*
X229446Y15112D02*
X234334Y20000D01*
X172772Y23700D02*
X182272Y33200D01*
X201317Y14200D02*
X201417Y14300D01*
X182272Y33200D02*
X195887D01*
X229008Y23236D02*
Y28592D01*
X196508Y28500D02*
X196529Y28480D01*
X33600Y82200D02*
X36444D01*
X173600Y21700D02*
X183100Y31200D01*
X156693Y7492D02*
X157244Y6941D01*
X216301Y27700D02*
X218962Y30362D01*
X221300Y15112D02*
X229446D01*
X180615Y37200D02*
X193372D01*
X227561Y6261D02*
X229961D01*
X56600Y5300D02*
X65000Y13700D01*
X190200Y41700D02*
Y41792D01*
X145800Y6600D02*
X154500Y15300D01*
X92172Y13700D02*
X108672Y30200D01*
X216600Y5300D02*
X217200D01*
X257600Y27608D02*
X262051Y23158D01*
X229961Y6261D02*
X237700Y14000D01*
X196600Y5300D02*
X197959D01*
X174400Y19514D02*
X183386Y28500D01*
X192600Y50886D02*
Y52200D01*
X226600Y5300D02*
X227561Y6261D01*
X190439Y44381D02*
X197724D01*
X176672Y13300D02*
X181572Y18200D01*
X199578Y26480D02*
X199599Y26500D01*
X197168Y34468D02*
X206968D01*
X185800Y6600D02*
Y7083D01*
X203160Y21700D02*
X216543D01*
D63*
X59600Y56200D02*
X67261Y48539D01*
X75439D01*
X80100Y53200D01*
X65102Y58700D02*
X65200D01*
X33100Y51700D02*
X44839D01*
X64002Y59800D02*
X65102Y58700D01*
X56100Y79606D02*
Y95500D01*
X52939Y59800D02*
X64002D01*
X51100Y57961D02*
X52939Y59800D01*
X51100Y74606D02*
X56100Y79606D01*
X44839Y51700D02*
X51100Y57961D01*
Y74606D01*
X63600Y68200D02*
X71419Y76019D01*
X83100Y80872D02*
Y87700D01*
X78247Y76019D02*
X83100Y80872D01*
X71419Y76019D02*
X78247D01*
D64*
X36100Y95500D02*
D03*
X56100D02*
D03*
X66100D02*
D03*
X76100D02*
D03*
X86100D02*
D03*
X106100D02*
D03*
X116100D02*
D03*
X126100D02*
D03*
X136100D02*
D03*
X146100D02*
D03*
X156100D02*
D03*
X166100D02*
D03*
X176100D02*
D03*
X186100D02*
D03*
X196100D02*
D03*
X206100D02*
D03*
X216100D02*
D03*
X226100D02*
D03*
X236100D02*
D03*
X246100D02*
D03*
X256100D02*
D03*
X96100D02*
D03*
X46100D02*
D03*
X256600Y5300D02*
D03*
X36600D02*
D03*
X96600D02*
D03*
X246600D02*
D03*
X236600D02*
D03*
X226600D02*
D03*
X216600D02*
D03*
X206600D02*
D03*
X196600D02*
D03*
X186600D02*
D03*
X176600D02*
D03*
X166600D02*
D03*
X156600D02*
D03*
X146600D02*
D03*
X136600D02*
D03*
X126600D02*
D03*
X116600D02*
D03*
X106600D02*
D03*
X86600D02*
D03*
X76600D02*
D03*
X56600D02*
D03*
X46600D02*
D03*
X66600D02*
D03*
D65*
X266100Y95500D02*
D03*
X266600Y5300D02*
D03*
D66*
X144200Y49600D02*
D03*
D67*
X33100Y51700D02*
D03*
Y46700D02*
D03*
Y56700D02*
D03*
D68*
X138700Y49600D02*
D03*
D69*
X39600Y83200D02*
D03*
X220200Y63000D02*
D03*
X190600Y74600D02*
D03*
X176600Y80200D02*
D03*
X267200Y12300D02*
D03*
X59600Y56200D02*
D03*
X80100Y53200D02*
D03*
X165948Y36548D02*
D03*
X185500Y70900D02*
D03*
X201061Y61239D02*
D03*
X219400Y59700D02*
D03*
X65200Y58700D02*
D03*
X193821Y71279D02*
D03*
X205900Y65700D02*
D03*
X216746Y54546D02*
D03*
X52700Y87900D02*
D03*
X32600Y8700D02*
D03*
X174600Y53200D02*
D03*
X34600Y26200D02*
D03*
X175100Y49700D02*
D03*
X41100Y26700D02*
D03*
X79600Y89900D02*
D03*
X262041Y41234D02*
D03*
Y37887D02*
D03*
X261541Y57931D02*
D03*
Y54584D02*
D03*
Y31159D02*
D03*
Y27813D02*
D03*
Y51238D02*
D03*
Y47891D02*
D03*
Y34506D02*
D03*
Y44545D02*
D03*
X253900Y30800D02*
D03*
X250800Y31700D02*
D03*
X242300Y54500D02*
D03*
Y47900D02*
D03*
X235800Y54400D02*
D03*
Y47900D02*
D03*
X204500Y77600D02*
D03*
X186800Y21200D02*
D03*
X198191Y20900D02*
D03*
X132700Y83600D02*
D03*
X261541Y74663D02*
D03*
Y71316D02*
D03*
Y67970D02*
D03*
Y64624D02*
D03*
Y61277D02*
D03*
X249000Y89600D02*
D03*
X125950Y35058D02*
D03*
X121904D02*
D03*
X151842D02*
D03*
X156925Y35383D02*
D03*
X98600Y29200D02*
D03*
X94000Y27500D02*
D03*
X93800Y34400D02*
D03*
X93100Y31200D02*
D03*
X91100Y21200D02*
D03*
X90400Y26400D02*
D03*
X90200Y31300D02*
D03*
X86100Y22700D02*
D03*
X85600Y26200D02*
D03*
X98600Y32700D02*
D03*
X57807Y68407D02*
D03*
X47600Y66700D02*
D03*
X44852Y71352D02*
D03*
X41600Y40000D02*
D03*
X39100Y77700D02*
D03*
X53200Y31400D02*
D03*
X49500Y26900D02*
D03*
X57500Y26600D02*
D03*
X38100Y24200D02*
D03*
X44600Y22200D02*
D03*
X44352Y16952D02*
D03*
X38100Y68200D02*
D03*
X33100Y39200D02*
D03*
X32100Y91700D02*
D03*
X31509Y69609D02*
D03*
X30600Y38700D02*
D03*
X119031Y35131D02*
D03*
X116535Y35035D02*
D03*
X98600Y36700D02*
D03*
X73400Y32900D02*
D03*
X71500Y34800D02*
D03*
X68279D02*
D03*
X161588Y81212D02*
D03*
X93300Y84307D02*
D03*
X97652Y56252D02*
D03*
X80200Y62900D02*
D03*
X77600Y82200D02*
D03*
X75600Y79200D02*
D03*
X73750Y90800D02*
D03*
X73600Y81700D02*
D03*
X73500Y51720D02*
D03*
X266600Y83500D02*
D03*
X266100Y88900D02*
D03*
X261765Y82155D02*
D03*
X83100Y87700D02*
D03*
X63600Y68200D02*
D03*
X51100Y84700D02*
D03*
X33600Y82200D02*
D03*
X41600Y86200D02*
D03*
X77100Y25492D02*
D03*
X81100Y25992D02*
D03*
X192600Y52200D02*
D03*
X196600Y50700D02*
D03*
X171500Y39800D02*
D03*
X190200Y41700D02*
D03*
X221700Y42500D02*
D03*
X53300Y16800D02*
D03*
X160600Y56700D02*
D03*
X105000Y60100D02*
D03*
X164981Y59355D02*
D03*
X112900Y64600D02*
D03*
X186800Y41400D02*
D03*
X217261Y41161D02*
D03*
X216100Y34900D02*
D03*
X76552Y55848D02*
D03*
X44500Y61500D02*
D03*
X101800Y75900D02*
D03*
X197639Y31161D02*
D03*
X206968Y34468D02*
D03*
X259120Y19620D02*
D03*
X218962Y32959D02*
D03*
X225662Y33159D02*
D03*
X239162Y32559D02*
D03*
X232362Y32859D02*
D03*
X235808Y28292D02*
D03*
X249108Y28192D02*
D03*
X222308Y28892D02*
D03*
X229008Y28592D02*
D03*
X242408Y28292D02*
D03*
X245762Y32559D02*
D03*
D70*
X249084Y73923D02*
D03*
X225655Y73755D02*
D03*
X222517Y71200D02*
D03*
X245691Y73699D02*
D03*
X242387Y71987D02*
D03*
X235600Y71700D02*
D03*
X229100Y72200D02*
D03*
X218600Y74700D02*
D03*
X215600Y70500D02*
D03*
X232600Y74200D02*
D03*
X239100D02*
D03*
X249982Y57696D02*
D03*
Y44704D02*
D03*
Y51200D02*
D03*
X239041Y40259D02*
D03*
X232545D02*
D03*
X228100Y57696D02*
D03*
Y51200D02*
D03*
X239041Y62141D02*
D03*
M02*
