M48
;Layer_Color=9474304
;FILE_FORMAT=2:5
INCH,LZ
;TYPE=PLATED
T01F00S00C0.00984
T02F00S00C0.01200
T04F00S00C0.02795
T05F00S00C0.02953
T06F00S00C0.04016
%
T01
X00326Y00087
X00346Y00262
X00381Y00242
X00411Y00267
X00446Y00222
X0044352Y0016952
X00533Y00168
X00495Y00269
X00532Y00314
X00575Y00266
X0068279Y00348
X00715
X00734Y00329
X00771Y0025492
X00811Y0025992
X00856Y00262
X00861Y00227
X00911Y00212
X00904Y00264
X0094Y00275
X00931Y00312
X00902Y00313
X00938Y00344
X00801Y00532
X0076552Y0055848
X00735Y005172
X00652Y00587
X00596Y00562
X0057807Y0068407
X00636Y00682
X00476Y00667
X0044852Y0071352
X00381Y00682
X0031509Y0069609
X00336Y00822
X00396Y00832
X00416Y00862
X00391Y00777
X00511Y00847
X00527Y00879
X007375Y00908
X00796Y00899
X00831Y00877
X00776Y00822
X00736Y00817
X00756Y00792
X00802Y00629
X00933Y0084307
X00321Y00917
X00445Y00615
X00416Y004
X00331Y00392
X00306Y00387
X00986Y00367
Y00327
Y00292
X0116535Y0035035
X0119031Y0035131
X0121904Y0035058
X012595
X0151842
X0156925Y0035383
X0165948Y0036548
X01715Y00398
X01751Y00497
X01746Y00532
X0164981Y0059355
X01606Y00567
X0161588Y0081212
X01766Y00802
X01855Y00709
X0193821Y0071279
X01906Y00746
X02045Y00776
X02059Y00657
X0201061Y0061239
X01966Y00507
X01926Y00522
X01902Y00417
X01868Y00414
Y00212
X0198191Y00209
X0197639Y0031161
X0206968Y0034468
X02161Y00349
X0218962Y0032959
X0225662Y0033159
X0232362Y0032859
X0239162Y0032559
X0245762
X02508Y00317
X0249108Y0028192
X0242408Y0028292
X0235808
X0229008Y0028592
X0222308Y0028892
X02217Y00425
X0217261Y0041161
X0216746Y0054546
X02194Y00597
X02202Y0063
X02358Y00544
Y00479
X02423
Y00545
X0249Y00896
X01327Y00836
X01018Y00759
X0105Y00601
X0097652Y0056252
X01129Y00646
X0261541Y0064624
Y006797
Y0071316
Y0074663
X0261765Y0082155
X02666Y00835
X02661Y00889
X0261541Y0061277
Y0057931
Y0054584
Y0051238
Y0047891
Y0044545
X0262041Y0041234
Y0037887
X0261541Y0034506
Y0031159
Y0027813
X025912Y001962
X02672Y00123
X02539Y00308
T02
X0232545Y0040259
X0239041
X0249982Y0044704
Y00512
Y0057696
X0239041Y0062141
X02391Y00742
X0242387Y0071987
X0245691Y0073699
X0249084Y0073923
X02356Y00717
X02326Y00742
X02291Y00722
X0225655Y0073755
X0222517Y00712
X02186Y00747
X02156Y00705
X02281Y0057696
Y00512
T04
X00331Y00467
Y00517
Y00567
T05
X01387Y00496
X01442
T06
X00366Y00053
X00466
X00566
X00666
X00766
X00866
X00966
X01066
X01166
X01266
X01366
X01466
X01566
X01666
X01766
X01866
X01966
X02066
X02166
X02266
X02366
X02466
X02566
X02666
X02661Y00955
X02561
X02461
X02361
X02261
X02161
X02061
X01961
X01861
X01761
X01661
X01561
X01461
X01361
X01261
X01161
X01061
X00961
X00861
X00761
X00661
X00561
X00461
X00361
M30
