G04*
G04 #@! TF.GenerationSoftware,Altium Limited,Altium Designer,26.3.0 (6)*
G04*
G04 Layer_Color=65535*
%FSLAX25Y25*%
%MOIN*%
G70*
G04*
G04 #@! TF.SameCoordinates,8962AE64-8B79-459F-B45C-7CE8C08CF215*
G04*
G04*
G04 #@! TF.FilePolarity,Positive*
G04*
G01*
G75*
%ADD10C,0.00984*%
%ADD11C,0.00787*%
%ADD12C,0.00197*%
%ADD13C,0.00197*%
%ADD14C,0.00200*%
%ADD15C,0.00500*%
%ADD16C,0.00394*%
G36*
X138303Y55646D02*
X138332D01*
X138403Y55638D01*
X138480Y55627D01*
X138562Y55608D01*
X138651Y55586D01*
X138736Y55557D01*
X138740D01*
X138747Y55553D01*
X138758Y55549D01*
X138773Y55542D01*
X138814Y55520D01*
X138865Y55494D01*
X138921Y55457D01*
X138980Y55412D01*
X139035Y55364D01*
X139087Y55305D01*
X139095Y55298D01*
X139110Y55275D01*
X139132Y55242D01*
X139161Y55194D01*
X139191Y55135D01*
X139224Y55061D01*
X139258Y54979D01*
X139283Y54887D01*
X138976Y54806D01*
Y54809D01*
X138973Y54813D01*
X138969Y54824D01*
X138965Y54839D01*
X138954Y54872D01*
X138939Y54917D01*
X138917Y54968D01*
X138891Y55016D01*
X138865Y55068D01*
X138832Y55113D01*
X138828Y55116D01*
X138817Y55131D01*
X138795Y55150D01*
X138769Y55176D01*
X138736Y55205D01*
X138691Y55235D01*
X138643Y55264D01*
X138588Y55290D01*
X138580Y55294D01*
X138562Y55301D01*
X138529Y55313D01*
X138484Y55327D01*
X138432Y55338D01*
X138373Y55349D01*
X138307Y55357D01*
X138236Y55361D01*
X138196D01*
X138177Y55357D01*
X138155D01*
X138100Y55353D01*
X138037Y55342D01*
X137966Y55331D01*
X137900Y55313D01*
X137833Y55287D01*
X137826Y55283D01*
X137803Y55275D01*
X137774Y55257D01*
X137737Y55238D01*
X137692Y55209D01*
X137644Y55179D01*
X137600Y55142D01*
X137559Y55102D01*
X137556Y55098D01*
X137541Y55083D01*
X137522Y55057D01*
X137500Y55028D01*
X137474Y54991D01*
X137448Y54946D01*
X137422Y54898D01*
X137397Y54846D01*
Y54843D01*
X137393Y54835D01*
X137389Y54824D01*
X137382Y54806D01*
X137374Y54783D01*
X137367Y54757D01*
X137356Y54728D01*
X137348Y54695D01*
X137330Y54617D01*
X137315Y54528D01*
X137304Y54436D01*
X137300Y54332D01*
Y54328D01*
Y54317D01*
Y54299D01*
X137304Y54277D01*
Y54247D01*
X137308Y54210D01*
X137311Y54173D01*
X137315Y54132D01*
X137330Y54040D01*
X137348Y53944D01*
X137378Y53847D01*
X137415Y53755D01*
Y53751D01*
X137422Y53744D01*
X137426Y53733D01*
X137437Y53718D01*
X137463Y53677D01*
X137504Y53625D01*
X137552Y53570D01*
X137611Y53514D01*
X137681Y53462D01*
X137759Y53414D01*
X137763D01*
X137770Y53411D01*
X137781Y53403D01*
X137800Y53396D01*
X137818Y53389D01*
X137844Y53381D01*
X137903Y53359D01*
X137977Y53340D01*
X138059Y53322D01*
X138148Y53307D01*
X138240Y53303D01*
X138277D01*
X138299Y53307D01*
X138321D01*
X138377Y53315D01*
X138444Y53322D01*
X138514Y53337D01*
X138592Y53359D01*
X138669Y53385D01*
X138673D01*
X138680Y53389D01*
X138688Y53392D01*
X138702Y53400D01*
X138743Y53418D01*
X138788Y53440D01*
X138839Y53466D01*
X138895Y53496D01*
X138947Y53529D01*
X138991Y53566D01*
Y54047D01*
X138236D01*
Y54351D01*
X139324D01*
Y53400D01*
X139321Y53396D01*
X139313Y53392D01*
X139298Y53381D01*
X139280Y53366D01*
X139258Y53351D01*
X139232Y53333D01*
X139198Y53311D01*
X139165Y53289D01*
X139087Y53241D01*
X138999Y53189D01*
X138906Y53141D01*
X138806Y53100D01*
X138802D01*
X138795Y53096D01*
X138780Y53092D01*
X138762Y53085D01*
X138736Y53078D01*
X138706Y53067D01*
X138673Y53059D01*
X138640Y53052D01*
X138558Y53033D01*
X138466Y53015D01*
X138366Y53004D01*
X138262Y53000D01*
X138225D01*
X138199Y53004D01*
X138166D01*
X138125Y53007D01*
X138081Y53015D01*
X138033Y53018D01*
X137926Y53041D01*
X137811Y53067D01*
X137692Y53107D01*
X137633Y53130D01*
X137574Y53159D01*
X137570Y53163D01*
X137559Y53167D01*
X137545Y53178D01*
X137522Y53189D01*
X137496Y53207D01*
X137470Y53226D01*
X137400Y53277D01*
X137326Y53344D01*
X137249Y53426D01*
X137174Y53518D01*
X137108Y53625D01*
Y53629D01*
X137101Y53640D01*
X137093Y53655D01*
X137082Y53681D01*
X137071Y53707D01*
X137060Y53744D01*
X137045Y53781D01*
X137030Y53825D01*
X137015Y53873D01*
X137001Y53929D01*
X136989Y53984D01*
X136978Y54043D01*
X136960Y54173D01*
X136952Y54310D01*
Y54313D01*
Y54328D01*
Y54347D01*
X136956Y54373D01*
Y54406D01*
X136960Y54447D01*
X136967Y54487D01*
X136971Y54536D01*
X136982Y54587D01*
X136989Y54643D01*
X137019Y54761D01*
X137056Y54883D01*
X137108Y55005D01*
X137112Y55009D01*
X137115Y55020D01*
X137123Y55035D01*
X137137Y55057D01*
X137152Y55087D01*
X137171Y55116D01*
X137223Y55187D01*
X137285Y55268D01*
X137363Y55346D01*
X137452Y55423D01*
X137504Y55457D01*
X137556Y55490D01*
X137559Y55494D01*
X137570Y55497D01*
X137585Y55505D01*
X137607Y55516D01*
X137637Y55527D01*
X137670Y55542D01*
X137707Y55557D01*
X137752Y55572D01*
X137800Y55586D01*
X137852Y55597D01*
X137907Y55612D01*
X137966Y55623D01*
X138096Y55642D01*
X138162Y55649D01*
X138281D01*
X138303Y55646D01*
D02*
G37*
G36*
X136512Y55301D02*
X134999D01*
Y54521D01*
X136416D01*
Y54217D01*
X134999D01*
Y53348D01*
X136571D01*
Y53044D01*
X134658D01*
Y55605D01*
X136512D01*
Y55301D01*
D02*
G37*
G36*
X133293Y55601D02*
X133326D01*
X133404Y55597D01*
X133485Y55586D01*
X133574Y55575D01*
X133656Y55557D01*
X133696Y55546D01*
X133730Y55534D01*
X133733D01*
X133737Y55531D01*
X133759Y55520D01*
X133793Y55505D01*
X133833Y55479D01*
X133878Y55446D01*
X133926Y55401D01*
X133970Y55349D01*
X134015Y55290D01*
Y55287D01*
X134018Y55283D01*
X134033Y55261D01*
X134048Y55224D01*
X134070Y55176D01*
X134089Y55120D01*
X134107Y55054D01*
X134118Y54983D01*
X134122Y54905D01*
Y54902D01*
Y54894D01*
Y54880D01*
X134118Y54861D01*
Y54835D01*
X134115Y54809D01*
X134100Y54746D01*
X134078Y54672D01*
X134048Y54595D01*
X134003Y54517D01*
X133974Y54480D01*
X133944Y54443D01*
X133941Y54439D01*
X133937Y54436D01*
X133926Y54425D01*
X133911Y54413D01*
X133893Y54399D01*
X133870Y54384D01*
X133841Y54365D01*
X133811Y54343D01*
X133774Y54325D01*
X133733Y54306D01*
X133689Y54284D01*
X133641Y54265D01*
X133585Y54251D01*
X133530Y54232D01*
X133467Y54221D01*
X133400Y54210D01*
X133408Y54206D01*
X133423Y54199D01*
X133445Y54184D01*
X133475Y54169D01*
X133541Y54128D01*
X133574Y54103D01*
X133604Y54080D01*
X133611Y54073D01*
X133630Y54054D01*
X133659Y54025D01*
X133696Y53988D01*
X133737Y53936D01*
X133785Y53881D01*
X133833Y53814D01*
X133885Y53740D01*
X134326Y53044D01*
X133904D01*
X133567Y53577D01*
Y53581D01*
X133560Y53588D01*
X133552Y53599D01*
X133541Y53614D01*
X133515Y53655D01*
X133482Y53707D01*
X133441Y53762D01*
X133400Y53821D01*
X133360Y53877D01*
X133323Y53929D01*
X133319Y53932D01*
X133308Y53947D01*
X133290Y53969D01*
X133264Y53995D01*
X133208Y54051D01*
X133178Y54077D01*
X133149Y54099D01*
X133145Y54103D01*
X133138Y54106D01*
X133123Y54114D01*
X133101Y54125D01*
X133079Y54136D01*
X133053Y54147D01*
X132993Y54166D01*
X132990D01*
X132982Y54169D01*
X132968D01*
X132949Y54173D01*
X132923Y54177D01*
X132894D01*
X132853Y54180D01*
X132416D01*
Y53044D01*
X132076D01*
Y55605D01*
X133264D01*
X133293Y55601D01*
D02*
G37*
G36*
X44495Y47045D02*
X44521D01*
X44592Y47038D01*
X44669Y47027D01*
X44751Y47008D01*
X44839Y46986D01*
X44921Y46957D01*
X44925D01*
X44932Y46953D01*
X44943Y46946D01*
X44958Y46938D01*
X44995Y46920D01*
X45043Y46886D01*
X45099Y46849D01*
X45154Y46801D01*
X45206Y46746D01*
X45254Y46683D01*
Y46679D01*
X45257Y46676D01*
X45265Y46664D01*
X45272Y46653D01*
X45291Y46616D01*
X45313Y46568D01*
X45339Y46509D01*
X45357Y46439D01*
X45376Y46365D01*
X45383Y46283D01*
X45058Y46257D01*
Y46261D01*
Y46268D01*
X45054Y46280D01*
X45050Y46298D01*
X45039Y46339D01*
X45024Y46394D01*
X45002Y46453D01*
X44969Y46513D01*
X44928Y46568D01*
X44876Y46620D01*
X44869Y46624D01*
X44851Y46639D01*
X44813Y46661D01*
X44765Y46683D01*
X44703Y46705D01*
X44629Y46727D01*
X44536Y46742D01*
X44433Y46746D01*
X44381D01*
X44358Y46742D01*
X44329Y46738D01*
X44262Y46731D01*
X44188Y46716D01*
X44114Y46698D01*
X44044Y46668D01*
X44014Y46650D01*
X43985Y46631D01*
X43977Y46627D01*
X43962Y46613D01*
X43940Y46587D01*
X43918Y46557D01*
X43892Y46516D01*
X43870Y46472D01*
X43855Y46420D01*
X43848Y46361D01*
Y46354D01*
Y46339D01*
X43852Y46313D01*
X43859Y46283D01*
X43870Y46246D01*
X43889Y46209D01*
X43911Y46172D01*
X43944Y46135D01*
X43948Y46132D01*
X43966Y46121D01*
X43981Y46109D01*
X43996Y46102D01*
X44018Y46091D01*
X44044Y46076D01*
X44077Y46065D01*
X44114Y46050D01*
X44155Y46035D01*
X44203Y46017D01*
X44255Y46002D01*
X44314Y45984D01*
X44381Y45969D01*
X44455Y45950D01*
X44458D01*
X44473Y45947D01*
X44495Y45943D01*
X44521Y45935D01*
X44555Y45928D01*
X44595Y45917D01*
X44636Y45906D01*
X44680Y45895D01*
X44776Y45869D01*
X44869Y45843D01*
X44914Y45828D01*
X44954Y45813D01*
X44991Y45802D01*
X45021Y45788D01*
X45024D01*
X45032Y45784D01*
X45043Y45776D01*
X45058Y45769D01*
X45099Y45747D01*
X45147Y45717D01*
X45202Y45676D01*
X45257Y45632D01*
X45309Y45580D01*
X45354Y45525D01*
X45357Y45517D01*
X45372Y45499D01*
X45387Y45466D01*
X45409Y45421D01*
X45428Y45369D01*
X45446Y45307D01*
X45457Y45236D01*
X45461Y45162D01*
Y45158D01*
Y45155D01*
Y45144D01*
Y45129D01*
X45454Y45088D01*
X45446Y45036D01*
X45432Y44977D01*
X45413Y44914D01*
X45383Y44848D01*
X45343Y44777D01*
Y44774D01*
X45339Y44770D01*
X45320Y44748D01*
X45294Y44714D01*
X45257Y44677D01*
X45209Y44633D01*
X45150Y44585D01*
X45084Y44541D01*
X45006Y44500D01*
X45002D01*
X44995Y44496D01*
X44984Y44493D01*
X44969Y44485D01*
X44947Y44478D01*
X44921Y44467D01*
X44862Y44452D01*
X44791Y44433D01*
X44706Y44415D01*
X44614Y44404D01*
X44514Y44400D01*
X44455D01*
X44425Y44404D01*
X44392D01*
X44355Y44407D01*
X44310Y44411D01*
X44218Y44426D01*
X44122Y44441D01*
X44025Y44467D01*
X43933Y44500D01*
X43929D01*
X43922Y44504D01*
X43911Y44511D01*
X43896Y44518D01*
X43852Y44541D01*
X43800Y44574D01*
X43741Y44618D01*
X43678Y44670D01*
X43619Y44733D01*
X43563Y44803D01*
Y44807D01*
X43556Y44814D01*
X43552Y44826D01*
X43541Y44840D01*
X43533Y44859D01*
X43522Y44881D01*
X43496Y44936D01*
X43470Y45007D01*
X43448Y45085D01*
X43433Y45173D01*
X43426Y45266D01*
X43744Y45295D01*
Y45292D01*
Y45288D01*
X43748Y45277D01*
Y45262D01*
X43755Y45229D01*
X43766Y45181D01*
X43781Y45133D01*
X43796Y45077D01*
X43822Y45025D01*
X43848Y44977D01*
X43852Y44973D01*
X43863Y44959D01*
X43881Y44933D01*
X43911Y44907D01*
X43948Y44874D01*
X43988Y44840D01*
X44044Y44807D01*
X44103Y44777D01*
X44107D01*
X44111Y44774D01*
X44122Y44770D01*
X44133Y44766D01*
X44170Y44755D01*
X44218Y44740D01*
X44277Y44726D01*
X44344Y44714D01*
X44418Y44707D01*
X44499Y44703D01*
X44532D01*
X44569Y44707D01*
X44614Y44711D01*
X44666Y44718D01*
X44725Y44726D01*
X44784Y44740D01*
X44839Y44759D01*
X44847Y44763D01*
X44865Y44770D01*
X44891Y44785D01*
X44925Y44800D01*
X44958Y44826D01*
X44995Y44851D01*
X45032Y44881D01*
X45061Y44918D01*
X45065Y44922D01*
X45073Y44936D01*
X45084Y44955D01*
X45099Y44985D01*
X45113Y45014D01*
X45124Y45051D01*
X45132Y45092D01*
X45135Y45136D01*
Y45140D01*
Y45158D01*
X45132Y45181D01*
X45128Y45210D01*
X45117Y45240D01*
X45106Y45277D01*
X45087Y45314D01*
X45061Y45347D01*
X45058Y45351D01*
X45047Y45362D01*
X45032Y45377D01*
X45006Y45399D01*
X44976Y45421D01*
X44936Y45447D01*
X44888Y45473D01*
X44832Y45495D01*
X44828Y45499D01*
X44810Y45503D01*
X44780Y45514D01*
X44762Y45517D01*
X44736Y45525D01*
X44710Y45536D01*
X44677Y45543D01*
X44640Y45554D01*
X44595Y45566D01*
X44551Y45577D01*
X44499Y45591D01*
X44440Y45606D01*
X44377Y45621D01*
X44373D01*
X44362Y45625D01*
X44344Y45628D01*
X44321Y45636D01*
X44292Y45643D01*
X44259Y45651D01*
X44185Y45673D01*
X44103Y45699D01*
X44018Y45725D01*
X43944Y45750D01*
X43911Y45765D01*
X43881Y45780D01*
X43877D01*
X43874Y45784D01*
X43852Y45799D01*
X43818Y45817D01*
X43781Y45847D01*
X43737Y45880D01*
X43692Y45921D01*
X43648Y45969D01*
X43611Y46021D01*
X43607Y46028D01*
X43596Y46047D01*
X43582Y46076D01*
X43567Y46113D01*
X43552Y46161D01*
X43537Y46217D01*
X43526Y46276D01*
X43522Y46339D01*
Y46343D01*
Y46346D01*
Y46357D01*
Y46372D01*
X43530Y46409D01*
X43537Y46457D01*
X43548Y46513D01*
X43567Y46576D01*
X43593Y46639D01*
X43630Y46701D01*
Y46705D01*
X43633Y46709D01*
X43652Y46731D01*
X43678Y46761D01*
X43711Y46798D01*
X43755Y46838D01*
X43811Y46883D01*
X43877Y46923D01*
X43951Y46960D01*
X43955D01*
X43962Y46964D01*
X43974Y46968D01*
X43988Y46975D01*
X44007Y46983D01*
X44033Y46990D01*
X44088Y47005D01*
X44159Y47020D01*
X44240Y47034D01*
X44325Y47045D01*
X44421Y47049D01*
X44469D01*
X44495Y47045D01*
D02*
G37*
G36*
X42975Y45525D02*
Y45521D01*
Y45506D01*
Y45488D01*
Y45462D01*
X42971Y45429D01*
Y45392D01*
X42967Y45347D01*
X42963Y45303D01*
X42952Y45203D01*
X42938Y45099D01*
X42915Y44999D01*
X42901Y44951D01*
X42886Y44907D01*
Y44903D01*
X42882Y44896D01*
X42875Y44885D01*
X42867Y44870D01*
X42845Y44829D01*
X42812Y44777D01*
X42768Y44718D01*
X42716Y44659D01*
X42649Y44596D01*
X42568Y44541D01*
X42564D01*
X42557Y44533D01*
X42545Y44530D01*
X42527Y44518D01*
X42505Y44507D01*
X42475Y44496D01*
X42445Y44485D01*
X42409Y44470D01*
X42368Y44456D01*
X42323Y44444D01*
X42275Y44433D01*
X42220Y44422D01*
X42164Y44415D01*
X42105Y44407D01*
X41972Y44400D01*
X41939D01*
X41913Y44404D01*
X41883D01*
X41846Y44407D01*
X41805Y44411D01*
X41765Y44415D01*
X41672Y44430D01*
X41572Y44452D01*
X41476Y44481D01*
X41384Y44522D01*
X41380D01*
X41373Y44530D01*
X41361Y44537D01*
X41347Y44544D01*
X41306Y44574D01*
X41258Y44615D01*
X41202Y44666D01*
X41151Y44726D01*
X41099Y44800D01*
X41058Y44881D01*
Y44885D01*
X41054Y44892D01*
X41051Y44907D01*
X41043Y44925D01*
X41036Y44948D01*
X41028Y44977D01*
X41017Y45011D01*
X41010Y45051D01*
X41003Y45096D01*
X40991Y45144D01*
X40984Y45195D01*
X40977Y45251D01*
X40969Y45314D01*
X40966Y45380D01*
X40962Y45451D01*
Y45525D01*
Y47005D01*
X41302D01*
Y45525D01*
Y45521D01*
Y45510D01*
Y45491D01*
Y45469D01*
X41306Y45443D01*
Y45410D01*
X41310Y45340D01*
X41317Y45258D01*
X41328Y45177D01*
X41343Y45099D01*
X41350Y45066D01*
X41361Y45033D01*
X41365Y45025D01*
X41373Y45007D01*
X41391Y44981D01*
X41413Y44944D01*
X41439Y44907D01*
X41476Y44866D01*
X41521Y44826D01*
X41572Y44792D01*
X41580Y44789D01*
X41598Y44777D01*
X41631Y44766D01*
X41676Y44752D01*
X41728Y44733D01*
X41794Y44722D01*
X41865Y44711D01*
X41942Y44707D01*
X41979D01*
X42002Y44711D01*
X42035D01*
X42068Y44714D01*
X42149Y44729D01*
X42238Y44748D01*
X42323Y44777D01*
X42405Y44818D01*
X42442Y44844D01*
X42475Y44874D01*
X42479Y44877D01*
X42483Y44881D01*
X42490Y44892D01*
X42501Y44907D01*
X42512Y44929D01*
X42527Y44951D01*
X42542Y44985D01*
X42557Y45018D01*
X42571Y45059D01*
X42582Y45107D01*
X42597Y45162D01*
X42608Y45221D01*
X42619Y45288D01*
X42627Y45358D01*
X42634Y45440D01*
Y45525D01*
Y47005D01*
X42975D01*
Y45525D01*
D02*
G37*
G36*
X49095Y47012D02*
X49124Y47008D01*
X49161Y47005D01*
X49202Y46997D01*
X49242Y46990D01*
X49339Y46964D01*
X49435Y46927D01*
X49483Y46905D01*
X49531Y46879D01*
X49575Y46846D01*
X49616Y46809D01*
X49620Y46805D01*
X49627Y46801D01*
X49635Y46786D01*
X49650Y46772D01*
X49668Y46753D01*
X49687Y46727D01*
X49705Y46701D01*
X49727Y46668D01*
X49764Y46598D01*
X49801Y46509D01*
X49816Y46465D01*
X49823Y46413D01*
X49831Y46361D01*
X49834Y46306D01*
Y46298D01*
Y46280D01*
X49831Y46250D01*
X49827Y46209D01*
X49820Y46165D01*
X49805Y46113D01*
X49790Y46058D01*
X49768Y46002D01*
X49764Y45995D01*
X49757Y45976D01*
X49742Y45947D01*
X49720Y45906D01*
X49690Y45862D01*
X49653Y45806D01*
X49609Y45750D01*
X49557Y45688D01*
X49549Y45680D01*
X49531Y45658D01*
X49512Y45640D01*
X49494Y45621D01*
X49472Y45599D01*
X49442Y45569D01*
X49413Y45540D01*
X49376Y45506D01*
X49339Y45469D01*
X49294Y45429D01*
X49246Y45388D01*
X49194Y45340D01*
X49135Y45292D01*
X49076Y45240D01*
X49072Y45236D01*
X49065Y45229D01*
X49050Y45218D01*
X49031Y45203D01*
X49009Y45181D01*
X48983Y45158D01*
X48924Y45110D01*
X48861Y45055D01*
X48802Y44999D01*
X48750Y44951D01*
X48728Y44933D01*
X48710Y44914D01*
X48706Y44911D01*
X48695Y44899D01*
X48680Y44885D01*
X48662Y44862D01*
X48643Y44837D01*
X48621Y44811D01*
X48576Y44748D01*
X49838D01*
Y44444D01*
X48140D01*
Y44448D01*
Y44463D01*
Y44485D01*
X48144Y44515D01*
X48147Y44548D01*
X48155Y44585D01*
X48162Y44622D01*
X48177Y44663D01*
Y44666D01*
X48180Y44670D01*
X48188Y44692D01*
X48203Y44726D01*
X48225Y44770D01*
X48255Y44822D01*
X48292Y44881D01*
X48332Y44940D01*
X48384Y45003D01*
Y45007D01*
X48391Y45011D01*
X48410Y45033D01*
X48443Y45066D01*
X48491Y45114D01*
X48547Y45170D01*
X48617Y45236D01*
X48702Y45310D01*
X48795Y45388D01*
X48798Y45392D01*
X48813Y45403D01*
X48835Y45421D01*
X48861Y45443D01*
X48895Y45473D01*
X48935Y45506D01*
X48976Y45543D01*
X49024Y45584D01*
X49117Y45673D01*
X49209Y45762D01*
X49254Y45806D01*
X49294Y45850D01*
X49331Y45891D01*
X49361Y45932D01*
Y45935D01*
X49368Y45939D01*
X49376Y45950D01*
X49383Y45965D01*
X49409Y46006D01*
X49439Y46054D01*
X49464Y46113D01*
X49490Y46176D01*
X49505Y46246D01*
X49512Y46313D01*
Y46317D01*
Y46320D01*
X49509Y46343D01*
X49505Y46380D01*
X49494Y46420D01*
X49479Y46472D01*
X49453Y46524D01*
X49420Y46576D01*
X49376Y46627D01*
X49368Y46635D01*
X49350Y46650D01*
X49324Y46668D01*
X49283Y46694D01*
X49231Y46716D01*
X49172Y46738D01*
X49102Y46753D01*
X49024Y46757D01*
X49002D01*
X48987Y46753D01*
X48943Y46749D01*
X48891Y46738D01*
X48835Y46724D01*
X48773Y46698D01*
X48713Y46664D01*
X48658Y46620D01*
X48651Y46613D01*
X48636Y46594D01*
X48614Y46564D01*
X48591Y46520D01*
X48565Y46468D01*
X48543Y46402D01*
X48528Y46328D01*
X48521Y46243D01*
X48199Y46276D01*
Y46280D01*
X48203Y46291D01*
Y46309D01*
X48206Y46335D01*
X48214Y46365D01*
X48221Y46398D01*
X48232Y46439D01*
X48243Y46479D01*
X48273Y46568D01*
X48318Y46657D01*
X48343Y46701D01*
X48377Y46746D01*
X48410Y46786D01*
X48447Y46823D01*
X48451Y46827D01*
X48458Y46831D01*
X48469Y46842D01*
X48488Y46853D01*
X48510Y46868D01*
X48536Y46883D01*
X48565Y46901D01*
X48602Y46920D01*
X48643Y46938D01*
X48687Y46957D01*
X48736Y46971D01*
X48787Y46986D01*
X48843Y46997D01*
X48902Y47008D01*
X48965Y47012D01*
X49031Y47016D01*
X49068D01*
X49095Y47012D01*
D02*
G37*
G36*
X46945Y47001D02*
X46974D01*
X47041Y46994D01*
X47115Y46986D01*
X47193Y46971D01*
X47270Y46953D01*
X47341Y46927D01*
X47344D01*
X47348Y46923D01*
X47370Y46912D01*
X47404Y46894D01*
X47441Y46868D01*
X47485Y46835D01*
X47533Y46794D01*
X47577Y46742D01*
X47618Y46687D01*
X47622Y46679D01*
X47633Y46657D01*
X47651Y46627D01*
X47670Y46583D01*
X47688Y46531D01*
X47707Y46476D01*
X47718Y46413D01*
X47722Y46350D01*
Y46343D01*
Y46324D01*
X47718Y46291D01*
X47711Y46250D01*
X47699Y46202D01*
X47681Y46150D01*
X47659Y46098D01*
X47629Y46043D01*
X47625Y46035D01*
X47614Y46021D01*
X47592Y45991D01*
X47563Y45961D01*
X47526Y45924D01*
X47481Y45884D01*
X47426Y45847D01*
X47363Y45810D01*
X47367D01*
X47374Y45806D01*
X47385Y45802D01*
X47400Y45795D01*
X47444Y45780D01*
X47496Y45754D01*
X47552Y45721D01*
X47614Y45680D01*
X47670Y45632D01*
X47722Y45573D01*
X47725Y45566D01*
X47740Y45543D01*
X47763Y45510D01*
X47785Y45466D01*
X47807Y45406D01*
X47829Y45344D01*
X47844Y45270D01*
X47848Y45188D01*
Y45184D01*
Y45181D01*
Y45158D01*
X47844Y45121D01*
X47837Y45077D01*
X47829Y45025D01*
X47814Y44970D01*
X47796Y44911D01*
X47770Y44851D01*
X47766Y44844D01*
X47755Y44826D01*
X47740Y44800D01*
X47718Y44763D01*
X47688Y44726D01*
X47659Y44685D01*
X47622Y44644D01*
X47581Y44611D01*
X47577Y44607D01*
X47563Y44596D01*
X47537Y44581D01*
X47503Y44567D01*
X47463Y44544D01*
X47415Y44522D01*
X47363Y44504D01*
X47300Y44485D01*
X47293D01*
X47270Y44478D01*
X47233Y44474D01*
X47185Y44467D01*
X47126Y44459D01*
X47056Y44452D01*
X46978Y44448D01*
X46889Y44444D01*
X45913D01*
Y47005D01*
X46919D01*
X46945Y47001D01*
D02*
G37*
G36*
X42371Y51754D02*
X43066D01*
Y51462D01*
X42371D01*
Y50759D01*
X42075D01*
Y51462D01*
X41379D01*
Y51754D01*
X42075D01*
Y52450D01*
X42371D01*
Y51754D01*
D02*
G37*
G36*
X46618Y50344D02*
X46267D01*
X45275Y52905D01*
X45645D01*
X46311Y51044D01*
Y51040D01*
X46315Y51033D01*
X46319Y51021D01*
X46326Y51007D01*
X46330Y50985D01*
X46337Y50962D01*
X46356Y50907D01*
X46378Y50844D01*
X46400Y50774D01*
X46444Y50626D01*
Y50629D01*
X46448Y50637D01*
X46452Y50648D01*
X46455Y50663D01*
X46467Y50703D01*
X46485Y50759D01*
X46504Y50822D01*
X46526Y50892D01*
X46552Y50966D01*
X46581Y51044D01*
X47277Y52905D01*
X47621D01*
X46618Y50344D01*
D02*
G37*
G36*
X44998Y52572D02*
X43973D01*
X43836Y51880D01*
X43840Y51884D01*
X43847Y51887D01*
X43858Y51895D01*
X43876Y51906D01*
X43899Y51917D01*
X43925Y51932D01*
X43984Y51961D01*
X44058Y51991D01*
X44139Y52017D01*
X44228Y52035D01*
X44272Y52043D01*
X44354D01*
X44376Y52039D01*
X44406Y52035D01*
X44439Y52032D01*
X44476Y52024D01*
X44517Y52013D01*
X44605Y51987D01*
X44654Y51969D01*
X44702Y51943D01*
X44750Y51917D01*
X44798Y51887D01*
X44842Y51850D01*
X44887Y51810D01*
X44890Y51806D01*
X44898Y51798D01*
X44909Y51787D01*
X44924Y51769D01*
X44942Y51743D01*
X44961Y51717D01*
X44983Y51684D01*
X45005Y51647D01*
X45024Y51606D01*
X45046Y51562D01*
X45064Y51510D01*
X45083Y51458D01*
X45098Y51403D01*
X45109Y51340D01*
X45116Y51277D01*
X45120Y51210D01*
Y51206D01*
Y51195D01*
Y51177D01*
X45116Y51151D01*
X45112Y51121D01*
X45109Y51088D01*
X45101Y51047D01*
X45094Y51007D01*
X45072Y50911D01*
X45035Y50811D01*
X45013Y50759D01*
X44983Y50711D01*
X44953Y50659D01*
X44916Y50611D01*
X44912Y50607D01*
X44905Y50596D01*
X44890Y50581D01*
X44872Y50563D01*
X44846Y50541D01*
X44816Y50511D01*
X44779Y50485D01*
X44739Y50455D01*
X44694Y50426D01*
X44642Y50400D01*
X44587Y50374D01*
X44528Y50348D01*
X44465Y50330D01*
X44394Y50315D01*
X44320Y50304D01*
X44243Y50300D01*
X44210D01*
X44184Y50304D01*
X44154Y50307D01*
X44121Y50311D01*
X44080Y50315D01*
X44039Y50326D01*
X43947Y50348D01*
X43854Y50381D01*
X43806Y50404D01*
X43758Y50429D01*
X43714Y50459D01*
X43669Y50492D01*
X43666Y50496D01*
X43658Y50500D01*
X43651Y50515D01*
X43636Y50529D01*
X43617Y50548D01*
X43599Y50570D01*
X43577Y50600D01*
X43558Y50633D01*
X43536Y50666D01*
X43514Y50707D01*
X43473Y50796D01*
X43440Y50899D01*
X43429Y50955D01*
X43421Y51014D01*
X43751Y51040D01*
Y51036D01*
Y51029D01*
X43755Y51018D01*
X43758Y50999D01*
X43769Y50959D01*
X43784Y50903D01*
X43806Y50848D01*
X43836Y50785D01*
X43873Y50729D01*
X43917Y50677D01*
X43925Y50674D01*
X43939Y50659D01*
X43969Y50640D01*
X44010Y50618D01*
X44054Y50596D01*
X44110Y50577D01*
X44173Y50563D01*
X44243Y50559D01*
X44265D01*
X44280Y50563D01*
X44324Y50566D01*
X44376Y50581D01*
X44439Y50600D01*
X44502Y50629D01*
X44568Y50674D01*
X44598Y50700D01*
X44628Y50729D01*
X44631Y50733D01*
X44635Y50737D01*
X44642Y50748D01*
X44654Y50759D01*
X44679Y50800D01*
X44709Y50851D01*
X44735Y50914D01*
X44761Y50992D01*
X44779Y51084D01*
X44787Y51133D01*
Y51184D01*
Y51188D01*
Y51195D01*
Y51210D01*
X44783Y51229D01*
Y51251D01*
X44779Y51277D01*
X44768Y51336D01*
X44750Y51406D01*
X44724Y51477D01*
X44687Y51543D01*
X44635Y51606D01*
Y51610D01*
X44628Y51613D01*
X44609Y51632D01*
X44576Y51658D01*
X44532Y51688D01*
X44472Y51713D01*
X44406Y51739D01*
X44328Y51758D01*
X44284Y51765D01*
X44213D01*
X44184Y51762D01*
X44147Y51758D01*
X44102Y51747D01*
X44058Y51736D01*
X44010Y51717D01*
X43962Y51695D01*
X43958Y51691D01*
X43943Y51684D01*
X43921Y51665D01*
X43891Y51647D01*
X43862Y51621D01*
X43832Y51588D01*
X43799Y51554D01*
X43773Y51514D01*
X43477Y51554D01*
X43725Y52872D01*
X44998D01*
Y52572D01*
D02*
G37*
G36*
X44630Y59521D02*
X44656D01*
X44726Y59513D01*
X44804Y59502D01*
X44886Y59484D01*
X44974Y59462D01*
X45056Y59432D01*
X45059D01*
X45067Y59428D01*
X45078Y59421D01*
X45093Y59414D01*
X45130Y59395D01*
X45178Y59362D01*
X45233Y59325D01*
X45289Y59277D01*
X45341Y59221D01*
X45389Y59158D01*
Y59155D01*
X45393Y59151D01*
X45400Y59140D01*
X45407Y59129D01*
X45426Y59092D01*
X45448Y59044D01*
X45474Y58984D01*
X45492Y58914D01*
X45511Y58840D01*
X45518Y58759D01*
X45193Y58733D01*
Y58736D01*
Y58744D01*
X45189Y58755D01*
X45185Y58773D01*
X45174Y58814D01*
X45159Y58870D01*
X45137Y58929D01*
X45104Y58988D01*
X45063Y59044D01*
X45011Y59095D01*
X45004Y59099D01*
X44985Y59114D01*
X44949Y59136D01*
X44900Y59158D01*
X44837Y59180D01*
X44763Y59203D01*
X44671Y59218D01*
X44567Y59221D01*
X44516D01*
X44493Y59218D01*
X44464Y59214D01*
X44397Y59206D01*
X44323Y59192D01*
X44249Y59173D01*
X44179Y59144D01*
X44149Y59125D01*
X44120Y59106D01*
X44112Y59103D01*
X44098Y59088D01*
X44075Y59062D01*
X44053Y59032D01*
X44027Y58992D01*
X44005Y58947D01*
X43990Y58896D01*
X43983Y58836D01*
Y58829D01*
Y58814D01*
X43986Y58788D01*
X43994Y58759D01*
X44005Y58722D01*
X44023Y58685D01*
X44046Y58648D01*
X44079Y58611D01*
X44083Y58607D01*
X44101Y58596D01*
X44116Y58585D01*
X44131Y58577D01*
X44153Y58566D01*
X44179Y58552D01*
X44212Y58540D01*
X44249Y58526D01*
X44290Y58511D01*
X44338Y58492D01*
X44390Y58477D01*
X44449Y58459D01*
X44516Y58444D01*
X44590Y58426D01*
X44593D01*
X44608Y58422D01*
X44630Y58418D01*
X44656Y58411D01*
X44690Y58403D01*
X44730Y58392D01*
X44771Y58381D01*
X44815Y58370D01*
X44912Y58344D01*
X45004Y58318D01*
X45048Y58304D01*
X45089Y58289D01*
X45126Y58278D01*
X45156Y58263D01*
X45159D01*
X45167Y58259D01*
X45178Y58252D01*
X45193Y58244D01*
X45233Y58222D01*
X45281Y58193D01*
X45337Y58152D01*
X45393Y58108D01*
X45444Y58056D01*
X45489Y58000D01*
X45492Y57993D01*
X45507Y57974D01*
X45522Y57941D01*
X45544Y57897D01*
X45563Y57845D01*
X45581Y57782D01*
X45592Y57712D01*
X45596Y57638D01*
Y57634D01*
Y57630D01*
Y57619D01*
Y57604D01*
X45589Y57564D01*
X45581Y57512D01*
X45566Y57453D01*
X45548Y57390D01*
X45518Y57323D01*
X45478Y57253D01*
Y57249D01*
X45474Y57245D01*
X45455Y57223D01*
X45430Y57190D01*
X45393Y57153D01*
X45344Y57108D01*
X45285Y57060D01*
X45219Y57016D01*
X45141Y56975D01*
X45137D01*
X45130Y56972D01*
X45119Y56968D01*
X45104Y56960D01*
X45082Y56953D01*
X45056Y56942D01*
X44997Y56927D01*
X44926Y56909D01*
X44841Y56890D01*
X44749Y56879D01*
X44649Y56875D01*
X44590D01*
X44560Y56879D01*
X44527D01*
X44490Y56883D01*
X44445Y56887D01*
X44353Y56901D01*
X44257Y56916D01*
X44160Y56942D01*
X44068Y56975D01*
X44064D01*
X44057Y56979D01*
X44046Y56986D01*
X44031Y56994D01*
X43986Y57016D01*
X43935Y57049D01*
X43876Y57094D01*
X43813Y57146D01*
X43753Y57208D01*
X43698Y57279D01*
Y57282D01*
X43690Y57290D01*
X43687Y57301D01*
X43676Y57316D01*
X43668Y57334D01*
X43657Y57356D01*
X43631Y57412D01*
X43605Y57482D01*
X43583Y57560D01*
X43568Y57649D01*
X43561Y57741D01*
X43879Y57771D01*
Y57767D01*
Y57763D01*
X43883Y57752D01*
Y57737D01*
X43890Y57704D01*
X43901Y57656D01*
X43916Y57608D01*
X43931Y57552D01*
X43957Y57501D01*
X43983Y57453D01*
X43986Y57449D01*
X43998Y57434D01*
X44016Y57408D01*
X44046Y57382D01*
X44083Y57349D01*
X44123Y57316D01*
X44179Y57282D01*
X44238Y57253D01*
X44242D01*
X44245Y57249D01*
X44257Y57245D01*
X44268Y57242D01*
X44305Y57231D01*
X44353Y57216D01*
X44412Y57201D01*
X44479Y57190D01*
X44553Y57183D01*
X44634Y57179D01*
X44667D01*
X44704Y57183D01*
X44749Y57186D01*
X44800Y57194D01*
X44860Y57201D01*
X44919Y57216D01*
X44974Y57234D01*
X44982Y57238D01*
X45000Y57245D01*
X45026Y57260D01*
X45059Y57275D01*
X45093Y57301D01*
X45130Y57327D01*
X45167Y57356D01*
X45196Y57393D01*
X45200Y57397D01*
X45208Y57412D01*
X45219Y57430D01*
X45233Y57460D01*
X45248Y57490D01*
X45259Y57527D01*
X45267Y57567D01*
X45270Y57612D01*
Y57615D01*
Y57634D01*
X45267Y57656D01*
X45263Y57686D01*
X45252Y57715D01*
X45241Y57752D01*
X45222Y57789D01*
X45196Y57823D01*
X45193Y57826D01*
X45182Y57837D01*
X45167Y57852D01*
X45141Y57874D01*
X45111Y57897D01*
X45071Y57923D01*
X45022Y57948D01*
X44967Y57971D01*
X44963Y57974D01*
X44945Y57978D01*
X44915Y57989D01*
X44897Y57993D01*
X44871Y58000D01*
X44845Y58011D01*
X44812Y58019D01*
X44775Y58030D01*
X44730Y58041D01*
X44686Y58052D01*
X44634Y58067D01*
X44575Y58082D01*
X44512Y58096D01*
X44508D01*
X44497Y58100D01*
X44479Y58104D01*
X44456Y58111D01*
X44427Y58119D01*
X44394Y58126D01*
X44319Y58148D01*
X44238Y58174D01*
X44153Y58200D01*
X44079Y58226D01*
X44046Y58241D01*
X44016Y58255D01*
X44012D01*
X44009Y58259D01*
X43986Y58274D01*
X43953Y58293D01*
X43916Y58322D01*
X43872Y58355D01*
X43827Y58396D01*
X43783Y58444D01*
X43746Y58496D01*
X43742Y58503D01*
X43731Y58522D01*
X43716Y58552D01*
X43702Y58588D01*
X43687Y58637D01*
X43672Y58692D01*
X43661Y58751D01*
X43657Y58814D01*
Y58818D01*
Y58822D01*
Y58833D01*
Y58847D01*
X43665Y58885D01*
X43672Y58933D01*
X43683Y58988D01*
X43702Y59051D01*
X43727Y59114D01*
X43764Y59177D01*
Y59180D01*
X43768Y59184D01*
X43787Y59206D01*
X43813Y59236D01*
X43846Y59273D01*
X43890Y59314D01*
X43946Y59358D01*
X44012Y59399D01*
X44086Y59436D01*
X44090D01*
X44098Y59439D01*
X44109Y59443D01*
X44123Y59451D01*
X44142Y59458D01*
X44168Y59465D01*
X44223Y59480D01*
X44294Y59495D01*
X44375Y59510D01*
X44460Y59521D01*
X44556Y59525D01*
X44604D01*
X44630Y59521D01*
D02*
G37*
G36*
X43110Y58000D02*
Y57996D01*
Y57982D01*
Y57963D01*
Y57937D01*
X43106Y57904D01*
Y57867D01*
X43102Y57823D01*
X43099Y57778D01*
X43087Y57678D01*
X43073Y57575D01*
X43050Y57475D01*
X43036Y57427D01*
X43021Y57382D01*
Y57379D01*
X43017Y57371D01*
X43010Y57360D01*
X43002Y57345D01*
X42980Y57305D01*
X42947Y57253D01*
X42902Y57194D01*
X42851Y57134D01*
X42784Y57072D01*
X42703Y57016D01*
X42699D01*
X42691Y57009D01*
X42680Y57005D01*
X42662Y56994D01*
X42640Y56983D01*
X42610Y56972D01*
X42581Y56960D01*
X42544Y56946D01*
X42503Y56931D01*
X42458Y56920D01*
X42410Y56909D01*
X42355Y56898D01*
X42299Y56890D01*
X42240Y56883D01*
X42107Y56875D01*
X42074D01*
X42048Y56879D01*
X42018D01*
X41981Y56883D01*
X41940Y56887D01*
X41900Y56890D01*
X41807Y56905D01*
X41707Y56927D01*
X41611Y56957D01*
X41519Y56998D01*
X41515D01*
X41508Y57005D01*
X41496Y57012D01*
X41482Y57020D01*
X41441Y57049D01*
X41393Y57090D01*
X41337Y57142D01*
X41285Y57201D01*
X41234Y57275D01*
X41193Y57356D01*
Y57360D01*
X41189Y57367D01*
X41186Y57382D01*
X41178Y57401D01*
X41171Y57423D01*
X41163Y57453D01*
X41152Y57486D01*
X41145Y57527D01*
X41137Y57571D01*
X41126Y57619D01*
X41119Y57671D01*
X41112Y57726D01*
X41104Y57789D01*
X41100Y57856D01*
X41097Y57926D01*
Y58000D01*
Y59480D01*
X41437D01*
Y58000D01*
Y57996D01*
Y57985D01*
Y57967D01*
Y57945D01*
X41441Y57919D01*
Y57885D01*
X41445Y57815D01*
X41452Y57734D01*
X41463Y57652D01*
X41478Y57575D01*
X41485Y57541D01*
X41496Y57508D01*
X41500Y57501D01*
X41508Y57482D01*
X41526Y57456D01*
X41548Y57419D01*
X41574Y57382D01*
X41611Y57342D01*
X41655Y57301D01*
X41707Y57268D01*
X41715Y57264D01*
X41733Y57253D01*
X41767Y57242D01*
X41811Y57227D01*
X41863Y57208D01*
X41929Y57197D01*
X42000Y57186D01*
X42077Y57183D01*
X42114D01*
X42136Y57186D01*
X42170D01*
X42203Y57190D01*
X42285Y57205D01*
X42373Y57223D01*
X42458Y57253D01*
X42540Y57293D01*
X42577Y57319D01*
X42610Y57349D01*
X42614Y57353D01*
X42617Y57356D01*
X42625Y57367D01*
X42636Y57382D01*
X42647Y57405D01*
X42662Y57427D01*
X42677Y57460D01*
X42691Y57493D01*
X42706Y57534D01*
X42717Y57582D01*
X42732Y57638D01*
X42743Y57697D01*
X42754Y57763D01*
X42762Y57834D01*
X42769Y57915D01*
Y58000D01*
Y59480D01*
X43110D01*
Y58000D01*
D02*
G37*
G36*
X49503Y56920D02*
X49189D01*
Y58921D01*
X49185Y58918D01*
X49167Y58903D01*
X49144Y58881D01*
X49107Y58855D01*
X49067Y58822D01*
X49015Y58785D01*
X48956Y58744D01*
X48889Y58703D01*
X48885D01*
X48882Y58700D01*
X48859Y58685D01*
X48822Y58666D01*
X48778Y58644D01*
X48726Y58618D01*
X48671Y58592D01*
X48615Y58566D01*
X48560Y58544D01*
Y58847D01*
X48563D01*
X48571Y58855D01*
X48586Y58859D01*
X48604Y58870D01*
X48626Y58881D01*
X48652Y58896D01*
X48715Y58933D01*
X48789Y58973D01*
X48863Y59025D01*
X48941Y59084D01*
X49018Y59147D01*
X49022Y59151D01*
X49026Y59155D01*
X49037Y59166D01*
X49052Y59177D01*
X49085Y59214D01*
X49130Y59258D01*
X49174Y59310D01*
X49222Y59369D01*
X49263Y59428D01*
X49300Y59491D01*
X49503D01*
Y56920D01*
D02*
G37*
G36*
X47080Y59477D02*
X47109D01*
X47176Y59469D01*
X47250Y59462D01*
X47328Y59447D01*
X47405Y59428D01*
X47476Y59403D01*
X47479D01*
X47483Y59399D01*
X47505Y59388D01*
X47539Y59369D01*
X47576Y59343D01*
X47620Y59310D01*
X47668Y59269D01*
X47712Y59218D01*
X47753Y59162D01*
X47757Y59155D01*
X47768Y59132D01*
X47786Y59103D01*
X47805Y59058D01*
X47823Y59007D01*
X47842Y58951D01*
X47853Y58888D01*
X47857Y58825D01*
Y58818D01*
Y58799D01*
X47853Y58766D01*
X47846Y58725D01*
X47835Y58677D01*
X47816Y58626D01*
X47794Y58574D01*
X47764Y58518D01*
X47760Y58511D01*
X47749Y58496D01*
X47727Y58466D01*
X47698Y58437D01*
X47661Y58400D01*
X47616Y58359D01*
X47561Y58322D01*
X47498Y58285D01*
X47502D01*
X47509Y58281D01*
X47520Y58278D01*
X47535Y58270D01*
X47579Y58255D01*
X47631Y58230D01*
X47686Y58196D01*
X47749Y58156D01*
X47805Y58108D01*
X47857Y58048D01*
X47860Y58041D01*
X47875Y58019D01*
X47897Y57985D01*
X47920Y57941D01*
X47942Y57882D01*
X47964Y57819D01*
X47979Y57745D01*
X47982Y57664D01*
Y57660D01*
Y57656D01*
Y57634D01*
X47979Y57597D01*
X47971Y57552D01*
X47964Y57501D01*
X47949Y57445D01*
X47931Y57386D01*
X47905Y57327D01*
X47901Y57319D01*
X47890Y57301D01*
X47875Y57275D01*
X47853Y57238D01*
X47823Y57201D01*
X47794Y57160D01*
X47757Y57120D01*
X47716Y57086D01*
X47712Y57083D01*
X47698Y57072D01*
X47672Y57057D01*
X47638Y57042D01*
X47598Y57020D01*
X47550Y56998D01*
X47498Y56979D01*
X47435Y56960D01*
X47427D01*
X47405Y56953D01*
X47368Y56949D01*
X47320Y56942D01*
X47261Y56935D01*
X47191Y56927D01*
X47113Y56924D01*
X47024Y56920D01*
X46047D01*
Y59480D01*
X47054D01*
X47080Y59477D01*
D02*
G37*
G36*
X146672Y55604D02*
X146720Y55597D01*
X146779Y55586D01*
X146846Y55567D01*
X146912Y55545D01*
X146979Y55515D01*
X146983D01*
X146986Y55512D01*
X147009Y55501D01*
X147042Y55478D01*
X147079Y55453D01*
X147123Y55415D01*
X147168Y55375D01*
X147212Y55327D01*
X147249Y55271D01*
X147253Y55264D01*
X147264Y55245D01*
X147279Y55212D01*
X147297Y55171D01*
X147316Y55123D01*
X147330Y55068D01*
X147342Y55005D01*
X147345Y54942D01*
Y54935D01*
Y54912D01*
X147342Y54883D01*
X147334Y54842D01*
X147323Y54794D01*
X147305Y54742D01*
X147282Y54690D01*
X147253Y54638D01*
X147249Y54631D01*
X147238Y54616D01*
X147216Y54590D01*
X147186Y54561D01*
X147149Y54527D01*
X147105Y54491D01*
X147053Y54457D01*
X146990Y54424D01*
X146994D01*
X147001Y54420D01*
X147012Y54417D01*
X147027Y54413D01*
X147068Y54398D01*
X147120Y54376D01*
X147179Y54346D01*
X147238Y54309D01*
X147294Y54261D01*
X147345Y54206D01*
X147349Y54198D01*
X147364Y54176D01*
X147386Y54139D01*
X147408Y54091D01*
X147430Y54032D01*
X147453Y53961D01*
X147468Y53880D01*
X147471Y53791D01*
Y53787D01*
Y53776D01*
Y53758D01*
X147468Y53736D01*
X147464Y53706D01*
X147456Y53673D01*
X147449Y53636D01*
X147442Y53595D01*
X147412Y53506D01*
X147390Y53458D01*
X147368Y53414D01*
X147338Y53366D01*
X147305Y53318D01*
X147268Y53270D01*
X147223Y53225D01*
X147220Y53221D01*
X147212Y53214D01*
X147197Y53203D01*
X147179Y53188D01*
X147157Y53170D01*
X147127Y53151D01*
X147094Y53129D01*
X147053Y53110D01*
X147012Y53088D01*
X146964Y53066D01*
X146916Y53048D01*
X146861Y53029D01*
X146801Y53014D01*
X146739Y53003D01*
X146676Y52996D01*
X146605Y52992D01*
X146572D01*
X146550Y52996D01*
X146520Y53000D01*
X146487Y53003D01*
X146450Y53011D01*
X146409Y53018D01*
X146320Y53040D01*
X146228Y53077D01*
X146180Y53099D01*
X146135Y53125D01*
X146091Y53159D01*
X146047Y53192D01*
X146043Y53196D01*
X146036Y53203D01*
X146025Y53214D01*
X146013Y53229D01*
X145995Y53247D01*
X145976Y53273D01*
X145954Y53299D01*
X145932Y53332D01*
X145910Y53369D01*
X145888Y53406D01*
X145847Y53495D01*
X145814Y53599D01*
X145802Y53654D01*
X145795Y53714D01*
X146109Y53754D01*
Y53750D01*
X146113Y53743D01*
X146117Y53728D01*
X146121Y53710D01*
X146124Y53688D01*
X146132Y53662D01*
X146150Y53606D01*
X146176Y53540D01*
X146209Y53477D01*
X146247Y53418D01*
X146291Y53366D01*
X146298Y53362D01*
X146313Y53347D01*
X146343Y53329D01*
X146380Y53310D01*
X146424Y53288D01*
X146479Y53270D01*
X146543Y53255D01*
X146609Y53251D01*
X146631D01*
X146646Y53255D01*
X146687Y53259D01*
X146739Y53270D01*
X146798Y53288D01*
X146861Y53314D01*
X146924Y53351D01*
X146983Y53403D01*
X146990Y53410D01*
X147009Y53432D01*
X147031Y53466D01*
X147060Y53510D01*
X147090Y53566D01*
X147112Y53628D01*
X147131Y53702D01*
X147138Y53784D01*
Y53787D01*
Y53795D01*
Y53806D01*
X147134Y53821D01*
X147131Y53861D01*
X147120Y53910D01*
X147105Y53969D01*
X147079Y54028D01*
X147042Y54087D01*
X146994Y54143D01*
X146986Y54150D01*
X146968Y54165D01*
X146938Y54187D01*
X146898Y54213D01*
X146846Y54239D01*
X146783Y54261D01*
X146713Y54276D01*
X146635Y54283D01*
X146602D01*
X146576Y54280D01*
X146543Y54276D01*
X146505Y54269D01*
X146461Y54261D01*
X146413Y54250D01*
X146450Y54527D01*
X146468D01*
X146483Y54524D01*
X146531D01*
X146572Y54531D01*
X146620Y54539D01*
X146676Y54550D01*
X146739Y54568D01*
X146798Y54594D01*
X146861Y54627D01*
X146864D01*
X146868Y54631D01*
X146887Y54646D01*
X146912Y54672D01*
X146942Y54705D01*
X146972Y54753D01*
X146998Y54809D01*
X147016Y54872D01*
X147023Y54909D01*
Y54949D01*
Y54953D01*
Y54957D01*
Y54979D01*
X147016Y55009D01*
X147009Y55049D01*
X146994Y55094D01*
X146975Y55142D01*
X146946Y55190D01*
X146905Y55234D01*
X146901Y55238D01*
X146883Y55253D01*
X146857Y55271D01*
X146824Y55293D01*
X146779Y55312D01*
X146727Y55330D01*
X146668Y55345D01*
X146602Y55349D01*
X146572D01*
X146539Y55342D01*
X146494Y55334D01*
X146446Y55319D01*
X146398Y55301D01*
X146346Y55271D01*
X146298Y55234D01*
X146295Y55231D01*
X146280Y55212D01*
X146257Y55186D01*
X146232Y55149D01*
X146206Y55101D01*
X146180Y55042D01*
X146158Y54972D01*
X146143Y54890D01*
X145828Y54946D01*
Y54949D01*
X145832Y54961D01*
X145836Y54975D01*
X145840Y54997D01*
X145847Y55023D01*
X145858Y55053D01*
X145880Y55123D01*
X145917Y55205D01*
X145962Y55286D01*
X146017Y55364D01*
X146087Y55434D01*
X146091Y55438D01*
X146098Y55441D01*
X146109Y55449D01*
X146124Y55460D01*
X146143Y55475D01*
X146169Y55489D01*
X146195Y55504D01*
X146228Y55523D01*
X146302Y55552D01*
X146387Y55582D01*
X146487Y55601D01*
X146539Y55608D01*
X146631D01*
X146672Y55604D01*
D02*
G37*
G36*
X143686D02*
X143734Y55597D01*
X143793Y55586D01*
X143860Y55567D01*
X143927Y55545D01*
X143993Y55515D01*
X143997D01*
X144000Y55512D01*
X144023Y55501D01*
X144056Y55478D01*
X144093Y55453D01*
X144137Y55415D01*
X144182Y55375D01*
X144226Y55327D01*
X144263Y55271D01*
X144267Y55264D01*
X144278Y55245D01*
X144293Y55212D01*
X144311Y55171D01*
X144330Y55123D01*
X144345Y55068D01*
X144356Y55005D01*
X144359Y54942D01*
Y54935D01*
Y54912D01*
X144356Y54883D01*
X144348Y54842D01*
X144337Y54794D01*
X144319Y54742D01*
X144297Y54690D01*
X144267Y54638D01*
X144263Y54631D01*
X144252Y54616D01*
X144230Y54590D01*
X144200Y54561D01*
X144163Y54527D01*
X144119Y54491D01*
X144067Y54457D01*
X144004Y54424D01*
X144008D01*
X144015Y54420D01*
X144026Y54417D01*
X144041Y54413D01*
X144082Y54398D01*
X144134Y54376D01*
X144193Y54346D01*
X144252Y54309D01*
X144308Y54261D01*
X144359Y54206D01*
X144363Y54198D01*
X144378Y54176D01*
X144400Y54139D01*
X144422Y54091D01*
X144445Y54032D01*
X144467Y53961D01*
X144482Y53880D01*
X144485Y53791D01*
Y53787D01*
Y53776D01*
Y53758D01*
X144482Y53736D01*
X144478Y53706D01*
X144471Y53673D01*
X144463Y53636D01*
X144456Y53595D01*
X144426Y53506D01*
X144404Y53458D01*
X144382Y53414D01*
X144352Y53366D01*
X144319Y53318D01*
X144282Y53270D01*
X144237Y53225D01*
X144234Y53221D01*
X144226Y53214D01*
X144211Y53203D01*
X144193Y53188D01*
X144171Y53170D01*
X144141Y53151D01*
X144108Y53129D01*
X144067Y53110D01*
X144026Y53088D01*
X143978Y53066D01*
X143930Y53048D01*
X143875Y53029D01*
X143816Y53014D01*
X143753Y53003D01*
X143690Y52996D01*
X143620Y52992D01*
X143586D01*
X143564Y52996D01*
X143534Y53000D01*
X143501Y53003D01*
X143464Y53011D01*
X143423Y53018D01*
X143334Y53040D01*
X143242Y53077D01*
X143194Y53099D01*
X143149Y53125D01*
X143105Y53159D01*
X143061Y53192D01*
X143057Y53196D01*
X143050Y53203D01*
X143039Y53214D01*
X143027Y53229D01*
X143009Y53247D01*
X142991Y53273D01*
X142968Y53299D01*
X142946Y53332D01*
X142924Y53369D01*
X142902Y53406D01*
X142861Y53495D01*
X142828Y53599D01*
X142817Y53654D01*
X142809Y53714D01*
X143124Y53754D01*
Y53750D01*
X143127Y53743D01*
X143131Y53728D01*
X143135Y53710D01*
X143138Y53688D01*
X143146Y53662D01*
X143164Y53606D01*
X143190Y53540D01*
X143224Y53477D01*
X143261Y53418D01*
X143305Y53366D01*
X143312Y53362D01*
X143327Y53347D01*
X143357Y53329D01*
X143394Y53310D01*
X143438Y53288D01*
X143494Y53270D01*
X143556Y53255D01*
X143623Y53251D01*
X143645D01*
X143660Y53255D01*
X143701Y53259D01*
X143753Y53270D01*
X143812Y53288D01*
X143875Y53314D01*
X143938Y53351D01*
X143997Y53403D01*
X144004Y53410D01*
X144023Y53432D01*
X144045Y53466D01*
X144074Y53510D01*
X144104Y53566D01*
X144126Y53628D01*
X144145Y53702D01*
X144152Y53784D01*
Y53787D01*
Y53795D01*
Y53806D01*
X144149Y53821D01*
X144145Y53861D01*
X144134Y53910D01*
X144119Y53969D01*
X144093Y54028D01*
X144056Y54087D01*
X144008Y54143D01*
X144000Y54150D01*
X143982Y54165D01*
X143952Y54187D01*
X143912Y54213D01*
X143860Y54239D01*
X143797Y54261D01*
X143727Y54276D01*
X143649Y54283D01*
X143616D01*
X143590Y54280D01*
X143556Y54276D01*
X143520Y54269D01*
X143475Y54261D01*
X143427Y54250D01*
X143464Y54527D01*
X143482D01*
X143497Y54524D01*
X143545D01*
X143586Y54531D01*
X143634Y54539D01*
X143690Y54550D01*
X143753Y54568D01*
X143812Y54594D01*
X143875Y54627D01*
X143878D01*
X143882Y54631D01*
X143901Y54646D01*
X143927Y54672D01*
X143956Y54705D01*
X143986Y54753D01*
X144012Y54809D01*
X144030Y54872D01*
X144038Y54909D01*
Y54949D01*
Y54953D01*
Y54957D01*
Y54979D01*
X144030Y55009D01*
X144023Y55049D01*
X144008Y55094D01*
X143990Y55142D01*
X143960Y55190D01*
X143919Y55234D01*
X143915Y55238D01*
X143897Y55253D01*
X143871Y55271D01*
X143838Y55293D01*
X143793Y55312D01*
X143742Y55330D01*
X143682Y55345D01*
X143616Y55349D01*
X143586D01*
X143553Y55342D01*
X143508Y55334D01*
X143460Y55319D01*
X143412Y55301D01*
X143360Y55271D01*
X143312Y55234D01*
X143309Y55231D01*
X143294Y55212D01*
X143272Y55186D01*
X143246Y55149D01*
X143220Y55101D01*
X143194Y55042D01*
X143172Y54972D01*
X143157Y54890D01*
X142842Y54946D01*
Y54949D01*
X142846Y54961D01*
X142850Y54975D01*
X142853Y54997D01*
X142861Y55023D01*
X142872Y55053D01*
X142894Y55123D01*
X142931Y55205D01*
X142976Y55286D01*
X143031Y55364D01*
X143101Y55434D01*
X143105Y55438D01*
X143113Y55441D01*
X143124Y55449D01*
X143138Y55460D01*
X143157Y55475D01*
X143183Y55489D01*
X143209Y55504D01*
X143242Y55523D01*
X143316Y55552D01*
X143401Y55582D01*
X143501Y55601D01*
X143553Y55608D01*
X143645D01*
X143686Y55604D01*
D02*
G37*
G36*
X148988Y53036D02*
X148637D01*
X147645Y55597D01*
X148015D01*
X148681Y53736D01*
Y53732D01*
X148685Y53725D01*
X148688Y53714D01*
X148696Y53699D01*
X148699Y53676D01*
X148707Y53654D01*
X148725Y53599D01*
X148748Y53536D01*
X148770Y53466D01*
X148814Y53318D01*
Y53321D01*
X148818Y53329D01*
X148822Y53340D01*
X148825Y53355D01*
X148836Y53395D01*
X148855Y53451D01*
X148873Y53514D01*
X148896Y53584D01*
X148922Y53658D01*
X148951Y53736D01*
X149647Y55597D01*
X149991D01*
X148988Y53036D01*
D02*
G37*
G36*
X145333D02*
X144974D01*
Y53395D01*
X145333D01*
Y53036D01*
D02*
G37*
G36*
X231650Y86026D02*
Y86020D01*
Y86004D01*
Y85981D01*
Y85948D01*
X231645Y85904D01*
Y85859D01*
X231633Y85754D01*
X231622Y85632D01*
X231600Y85504D01*
X231567Y85387D01*
X231528Y85276D01*
Y85271D01*
X231522Y85265D01*
X231506Y85232D01*
X231478Y85188D01*
X231439Y85127D01*
X231384Y85066D01*
X231323Y84999D01*
X231245Y84932D01*
X231156Y84877D01*
X231145Y84871D01*
X231112Y84855D01*
X231062Y84832D01*
X230990Y84810D01*
X230901Y84782D01*
X230801Y84760D01*
X230690Y84744D01*
X230568Y84738D01*
X230518D01*
X230485Y84744D01*
X230440Y84749D01*
X230396Y84755D01*
X230279Y84777D01*
X230157Y84810D01*
X230030Y84860D01*
X229963Y84894D01*
X229902Y84932D01*
X229846Y84977D01*
X229791Y85027D01*
X229785Y85032D01*
X229780Y85038D01*
X229769Y85060D01*
X229752Y85082D01*
X229730Y85110D01*
X229708Y85149D01*
X229685Y85193D01*
X229658Y85243D01*
X229636Y85299D01*
X229613Y85365D01*
X229591Y85432D01*
X229569Y85510D01*
X229558Y85593D01*
X229541Y85687D01*
X229536Y85782D01*
Y85887D01*
X229996Y85953D01*
Y85948D01*
Y85937D01*
Y85915D01*
X230002Y85881D01*
X230007Y85848D01*
Y85809D01*
X230024Y85715D01*
X230041Y85615D01*
X230074Y85515D01*
X230107Y85426D01*
X230129Y85387D01*
X230157Y85354D01*
X230163Y85349D01*
X230185Y85332D01*
X230218Y85304D01*
X230263Y85276D01*
X230324Y85243D01*
X230390Y85221D01*
X230473Y85199D01*
X230562Y85193D01*
X230596D01*
X230629Y85199D01*
X230679Y85204D01*
X230729Y85215D01*
X230784Y85227D01*
X230840Y85249D01*
X230895Y85276D01*
X230901Y85282D01*
X230918Y85293D01*
X230940Y85315D01*
X230973Y85338D01*
X231001Y85376D01*
X231034Y85415D01*
X231062Y85460D01*
X231084Y85515D01*
Y85521D01*
X231095Y85543D01*
X231101Y85582D01*
X231112Y85632D01*
X231123Y85698D01*
X231129Y85782D01*
X231140Y85881D01*
Y85998D01*
Y88645D01*
X231650D01*
Y86026D01*
D02*
G37*
G36*
X234064Y84805D02*
X233593D01*
Y87807D01*
X233587Y87802D01*
X233559Y87779D01*
X233526Y87746D01*
X233471Y87707D01*
X233410Y87657D01*
X233332Y87602D01*
X233243Y87541D01*
X233143Y87480D01*
X233138D01*
X233132Y87474D01*
X233099Y87452D01*
X233043Y87424D01*
X232977Y87391D01*
X232899Y87352D01*
X232816Y87313D01*
X232732Y87274D01*
X232649Y87241D01*
Y87696D01*
X232655D01*
X232666Y87707D01*
X232688Y87713D01*
X232716Y87730D01*
X232749Y87746D01*
X232788Y87768D01*
X232882Y87824D01*
X232993Y87885D01*
X233104Y87963D01*
X233221Y88051D01*
X233337Y88146D01*
X233343Y88151D01*
X233348Y88157D01*
X233365Y88174D01*
X233387Y88190D01*
X233437Y88246D01*
X233504Y88312D01*
X233570Y88390D01*
X233643Y88479D01*
X233704Y88568D01*
X233759Y88662D01*
X234064D01*
Y84805D01*
D02*
G37*
G36*
X140007Y62121D02*
X140033D01*
X140103Y62113D01*
X140181Y62102D01*
X140263Y62084D01*
X140351Y62062D01*
X140433Y62032D01*
X140437D01*
X140444Y62028D01*
X140455Y62021D01*
X140470Y62014D01*
X140507Y61995D01*
X140555Y61962D01*
X140610Y61925D01*
X140666Y61877D01*
X140718Y61821D01*
X140766Y61758D01*
Y61755D01*
X140770Y61751D01*
X140777Y61740D01*
X140784Y61729D01*
X140803Y61692D01*
X140825Y61644D01*
X140851Y61584D01*
X140869Y61514D01*
X140888Y61440D01*
X140895Y61359D01*
X140570Y61333D01*
Y61336D01*
Y61344D01*
X140566Y61355D01*
X140562Y61374D01*
X140551Y61414D01*
X140536Y61470D01*
X140514Y61529D01*
X140481Y61588D01*
X140440Y61644D01*
X140388Y61695D01*
X140381Y61699D01*
X140363Y61714D01*
X140325Y61736D01*
X140277Y61758D01*
X140215Y61781D01*
X140141Y61803D01*
X140048Y61818D01*
X139945Y61821D01*
X139893D01*
X139871Y61818D01*
X139841Y61814D01*
X139774Y61806D01*
X139700Y61792D01*
X139626Y61773D01*
X139556Y61743D01*
X139526Y61725D01*
X139497Y61707D01*
X139489Y61703D01*
X139474Y61688D01*
X139452Y61662D01*
X139430Y61633D01*
X139404Y61592D01*
X139382Y61547D01*
X139367Y61496D01*
X139360Y61436D01*
Y61429D01*
Y61414D01*
X139364Y61388D01*
X139371Y61359D01*
X139382Y61322D01*
X139400Y61285D01*
X139423Y61248D01*
X139456Y61211D01*
X139460Y61207D01*
X139478Y61196D01*
X139493Y61185D01*
X139508Y61177D01*
X139530Y61166D01*
X139556Y61151D01*
X139589Y61140D01*
X139626Y61126D01*
X139667Y61111D01*
X139715Y61092D01*
X139767Y61077D01*
X139826Y61059D01*
X139893Y61044D01*
X139967Y61026D01*
X139970D01*
X139985Y61022D01*
X140007Y61018D01*
X140033Y61011D01*
X140067Y61004D01*
X140107Y60992D01*
X140148Y60981D01*
X140192Y60970D01*
X140289Y60944D01*
X140381Y60918D01*
X140426Y60904D01*
X140466Y60889D01*
X140503Y60878D01*
X140533Y60863D01*
X140536D01*
X140544Y60859D01*
X140555Y60852D01*
X140570Y60844D01*
X140610Y60822D01*
X140658Y60793D01*
X140714Y60752D01*
X140770Y60707D01*
X140821Y60656D01*
X140866Y60600D01*
X140869Y60593D01*
X140884Y60574D01*
X140899Y60541D01*
X140921Y60497D01*
X140940Y60445D01*
X140958Y60382D01*
X140969Y60312D01*
X140973Y60238D01*
Y60234D01*
Y60230D01*
Y60219D01*
Y60204D01*
X140966Y60164D01*
X140958Y60112D01*
X140944Y60053D01*
X140925Y59990D01*
X140895Y59923D01*
X140855Y59853D01*
Y59849D01*
X140851Y59845D01*
X140832Y59823D01*
X140806Y59790D01*
X140770Y59753D01*
X140721Y59708D01*
X140662Y59660D01*
X140596Y59616D01*
X140518Y59575D01*
X140514D01*
X140507Y59572D01*
X140496Y59568D01*
X140481Y59561D01*
X140459Y59553D01*
X140433Y59542D01*
X140374Y59527D01*
X140303Y59509D01*
X140218Y59490D01*
X140126Y59479D01*
X140026Y59475D01*
X139967D01*
X139937Y59479D01*
X139904D01*
X139867Y59483D01*
X139822Y59487D01*
X139730Y59501D01*
X139634Y59516D01*
X139537Y59542D01*
X139445Y59575D01*
X139441D01*
X139434Y59579D01*
X139423Y59586D01*
X139408Y59594D01*
X139364Y59616D01*
X139312Y59649D01*
X139252Y59694D01*
X139190Y59746D01*
X139130Y59808D01*
X139075Y59879D01*
Y59882D01*
X139068Y59890D01*
X139064Y59901D01*
X139053Y59916D01*
X139045Y59934D01*
X139034Y59956D01*
X139008Y60012D01*
X138982Y60082D01*
X138960Y60160D01*
X138945Y60249D01*
X138938Y60341D01*
X139256Y60371D01*
Y60367D01*
Y60363D01*
X139260Y60352D01*
Y60338D01*
X139267Y60304D01*
X139278Y60256D01*
X139293Y60208D01*
X139308Y60153D01*
X139334Y60101D01*
X139360Y60053D01*
X139364Y60049D01*
X139375Y60034D01*
X139393Y60008D01*
X139423Y59982D01*
X139460Y59949D01*
X139500Y59916D01*
X139556Y59882D01*
X139615Y59853D01*
X139619D01*
X139623Y59849D01*
X139634Y59845D01*
X139645Y59842D01*
X139682Y59831D01*
X139730Y59816D01*
X139789Y59801D01*
X139856Y59790D01*
X139930Y59782D01*
X140011Y59779D01*
X140044D01*
X140081Y59782D01*
X140126Y59786D01*
X140178Y59794D01*
X140237Y59801D01*
X140296Y59816D01*
X140351Y59834D01*
X140359Y59838D01*
X140377Y59845D01*
X140403Y59860D01*
X140437Y59875D01*
X140470Y59901D01*
X140507Y59927D01*
X140544Y59956D01*
X140574Y59993D01*
X140577Y59997D01*
X140585Y60012D01*
X140596Y60030D01*
X140610Y60060D01*
X140625Y60090D01*
X140636Y60127D01*
X140644Y60167D01*
X140647Y60212D01*
Y60215D01*
Y60234D01*
X140644Y60256D01*
X140640Y60286D01*
X140629Y60315D01*
X140618Y60352D01*
X140599Y60389D01*
X140574Y60423D01*
X140570Y60426D01*
X140559Y60437D01*
X140544Y60452D01*
X140518Y60474D01*
X140488Y60497D01*
X140448Y60523D01*
X140400Y60548D01*
X140344Y60571D01*
X140340Y60574D01*
X140322Y60578D01*
X140292Y60589D01*
X140274Y60593D01*
X140248Y60600D01*
X140222Y60611D01*
X140189Y60619D01*
X140152Y60630D01*
X140107Y60641D01*
X140063Y60652D01*
X140011Y60667D01*
X139952Y60682D01*
X139889Y60696D01*
X139885D01*
X139874Y60700D01*
X139856Y60704D01*
X139833Y60711D01*
X139804Y60719D01*
X139771Y60726D01*
X139697Y60748D01*
X139615Y60774D01*
X139530Y60800D01*
X139456Y60826D01*
X139423Y60841D01*
X139393Y60856D01*
X139390D01*
X139386Y60859D01*
X139364Y60874D01*
X139330Y60892D01*
X139293Y60922D01*
X139249Y60955D01*
X139204Y60996D01*
X139160Y61044D01*
X139123Y61096D01*
X139119Y61103D01*
X139108Y61122D01*
X139093Y61151D01*
X139079Y61189D01*
X139064Y61237D01*
X139049Y61292D01*
X139038Y61351D01*
X139034Y61414D01*
Y61418D01*
Y61422D01*
Y61433D01*
Y61448D01*
X139042Y61484D01*
X139049Y61533D01*
X139060Y61588D01*
X139079Y61651D01*
X139104Y61714D01*
X139142Y61777D01*
Y61781D01*
X139145Y61784D01*
X139164Y61806D01*
X139190Y61836D01*
X139223Y61873D01*
X139267Y61914D01*
X139323Y61958D01*
X139390Y61999D01*
X139463Y62036D01*
X139467D01*
X139474Y62040D01*
X139486Y62043D01*
X139500Y62051D01*
X139519Y62058D01*
X139545Y62065D01*
X139600Y62080D01*
X139671Y62095D01*
X139752Y62110D01*
X139837Y62121D01*
X139933Y62125D01*
X139981D01*
X140007Y62121D01*
D02*
G37*
G36*
X138487Y60600D02*
Y60597D01*
Y60582D01*
Y60563D01*
Y60537D01*
X138483Y60504D01*
Y60467D01*
X138479Y60423D01*
X138476Y60378D01*
X138464Y60278D01*
X138450Y60175D01*
X138427Y60075D01*
X138413Y60027D01*
X138398Y59982D01*
Y59979D01*
X138394Y59971D01*
X138387Y59960D01*
X138379Y59945D01*
X138357Y59905D01*
X138324Y59853D01*
X138279Y59794D01*
X138228Y59734D01*
X138161Y59671D01*
X138080Y59616D01*
X138076D01*
X138069Y59609D01*
X138057Y59605D01*
X138039Y59594D01*
X138017Y59583D01*
X137987Y59572D01*
X137958Y59561D01*
X137921Y59546D01*
X137880Y59531D01*
X137835Y59520D01*
X137787Y59509D01*
X137732Y59498D01*
X137676Y59490D01*
X137617Y59483D01*
X137484Y59475D01*
X137451D01*
X137425Y59479D01*
X137395D01*
X137358Y59483D01*
X137318Y59487D01*
X137277Y59490D01*
X137184Y59505D01*
X137084Y59527D01*
X136988Y59557D01*
X136896Y59597D01*
X136892D01*
X136884Y59605D01*
X136873Y59612D01*
X136859Y59620D01*
X136818Y59649D01*
X136770Y59690D01*
X136714Y59742D01*
X136663Y59801D01*
X136611Y59875D01*
X136570Y59956D01*
Y59960D01*
X136566Y59967D01*
X136563Y59982D01*
X136555Y60001D01*
X136548Y60023D01*
X136540Y60053D01*
X136529Y60086D01*
X136522Y60127D01*
X136515Y60171D01*
X136503Y60219D01*
X136496Y60271D01*
X136489Y60326D01*
X136481Y60389D01*
X136477Y60456D01*
X136474Y60526D01*
Y60600D01*
Y62080D01*
X136814D01*
Y60600D01*
Y60597D01*
Y60585D01*
Y60567D01*
Y60545D01*
X136818Y60519D01*
Y60486D01*
X136822Y60415D01*
X136829Y60334D01*
X136840Y60252D01*
X136855Y60175D01*
X136862Y60141D01*
X136873Y60108D01*
X136877Y60101D01*
X136884Y60082D01*
X136903Y60056D01*
X136925Y60019D01*
X136951Y59982D01*
X136988Y59942D01*
X137032Y59901D01*
X137084Y59868D01*
X137092Y59864D01*
X137110Y59853D01*
X137144Y59842D01*
X137188Y59827D01*
X137240Y59808D01*
X137306Y59797D01*
X137377Y59786D01*
X137454Y59782D01*
X137491D01*
X137514Y59786D01*
X137547D01*
X137580Y59790D01*
X137662Y59805D01*
X137750Y59823D01*
X137835Y59853D01*
X137917Y59894D01*
X137954Y59919D01*
X137987Y59949D01*
X137991Y59953D01*
X137995Y59956D01*
X138002Y59967D01*
X138013Y59982D01*
X138024Y60005D01*
X138039Y60027D01*
X138054Y60060D01*
X138069Y60093D01*
X138083Y60134D01*
X138094Y60182D01*
X138109Y60238D01*
X138120Y60297D01*
X138131Y60363D01*
X138139Y60434D01*
X138146Y60515D01*
Y60600D01*
Y62080D01*
X138487D01*
Y60600D01*
D02*
G37*
G36*
X145047Y62076D02*
X145080D01*
X145158Y62073D01*
X145239Y62062D01*
X145328Y62051D01*
X145409Y62032D01*
X145450Y62021D01*
X145483Y62010D01*
X145487D01*
X145491Y62006D01*
X145513Y61995D01*
X145546Y61980D01*
X145587Y61954D01*
X145631Y61921D01*
X145679Y61877D01*
X145724Y61825D01*
X145768Y61766D01*
Y61762D01*
X145772Y61758D01*
X145787Y61736D01*
X145801Y61699D01*
X145824Y61651D01*
X145842Y61595D01*
X145861Y61529D01*
X145872Y61459D01*
X145876Y61381D01*
Y61377D01*
Y61370D01*
Y61355D01*
X145872Y61336D01*
Y61311D01*
X145868Y61285D01*
X145853Y61222D01*
X145831Y61148D01*
X145801Y61070D01*
X145757Y60992D01*
X145728Y60955D01*
X145698Y60918D01*
X145694Y60915D01*
X145691Y60911D01*
X145679Y60900D01*
X145665Y60889D01*
X145646Y60874D01*
X145624Y60859D01*
X145594Y60841D01*
X145565Y60818D01*
X145528Y60800D01*
X145487Y60782D01*
X145443Y60759D01*
X145395Y60741D01*
X145339Y60726D01*
X145283Y60707D01*
X145221Y60696D01*
X145154Y60685D01*
X145161Y60682D01*
X145176Y60674D01*
X145199Y60659D01*
X145228Y60645D01*
X145295Y60604D01*
X145328Y60578D01*
X145358Y60556D01*
X145365Y60548D01*
X145383Y60530D01*
X145413Y60500D01*
X145450Y60463D01*
X145491Y60412D01*
X145539Y60356D01*
X145587Y60289D01*
X145639Y60215D01*
X146079Y59520D01*
X145657D01*
X145321Y60053D01*
Y60056D01*
X145313Y60064D01*
X145306Y60075D01*
X145295Y60090D01*
X145269Y60130D01*
X145235Y60182D01*
X145195Y60238D01*
X145154Y60297D01*
X145113Y60352D01*
X145076Y60404D01*
X145073Y60408D01*
X145062Y60423D01*
X145043Y60445D01*
X145017Y60471D01*
X144962Y60526D01*
X144932Y60552D01*
X144902Y60574D01*
X144899Y60578D01*
X144891Y60582D01*
X144877Y60589D01*
X144854Y60600D01*
X144832Y60611D01*
X144806Y60622D01*
X144747Y60641D01*
X144743D01*
X144736Y60645D01*
X144721D01*
X144703Y60648D01*
X144677Y60652D01*
X144647D01*
X144606Y60656D01*
X144170D01*
Y59520D01*
X143829D01*
Y62080D01*
X145017D01*
X145047Y62076D01*
D02*
G37*
G36*
X143297Y61777D02*
X141783D01*
Y60996D01*
X143201D01*
Y60693D01*
X141783D01*
Y59823D01*
X143356D01*
Y59520D01*
X141443D01*
Y62080D01*
X143297D01*
Y61777D01*
D02*
G37*
G36*
X140833Y44221D02*
X140859D01*
X140929Y44214D01*
X141007Y44202D01*
X141088Y44184D01*
X141177Y44162D01*
X141259Y44132D01*
X141262D01*
X141270Y44128D01*
X141281Y44121D01*
X141296Y44114D01*
X141333Y44095D01*
X141381Y44062D01*
X141436Y44025D01*
X141492Y43977D01*
X141544Y43921D01*
X141592Y43858D01*
Y43855D01*
X141595Y43851D01*
X141603Y43840D01*
X141610Y43829D01*
X141629Y43792D01*
X141651Y43744D01*
X141677Y43684D01*
X141695Y43614D01*
X141714Y43540D01*
X141721Y43459D01*
X141396Y43433D01*
Y43437D01*
Y43444D01*
X141392Y43455D01*
X141388Y43474D01*
X141377Y43514D01*
X141362Y43570D01*
X141340Y43629D01*
X141307Y43688D01*
X141266Y43744D01*
X141214Y43795D01*
X141207Y43799D01*
X141188Y43814D01*
X141151Y43836D01*
X141103Y43858D01*
X141040Y43881D01*
X140966Y43903D01*
X140874Y43918D01*
X140770Y43921D01*
X140718D01*
X140696Y43918D01*
X140667Y43914D01*
X140600Y43906D01*
X140526Y43892D01*
X140452Y43873D01*
X140382Y43843D01*
X140352Y43825D01*
X140323Y43806D01*
X140315Y43803D01*
X140300Y43788D01*
X140278Y43762D01*
X140256Y43733D01*
X140230Y43692D01*
X140208Y43647D01*
X140193Y43596D01*
X140186Y43536D01*
Y43529D01*
Y43514D01*
X140189Y43488D01*
X140197Y43459D01*
X140208Y43422D01*
X140226Y43385D01*
X140249Y43348D01*
X140282Y43311D01*
X140286Y43307D01*
X140304Y43296D01*
X140319Y43285D01*
X140334Y43277D01*
X140356Y43266D01*
X140382Y43251D01*
X140415Y43240D01*
X140452Y43226D01*
X140493Y43211D01*
X140541Y43192D01*
X140593Y43178D01*
X140652Y43159D01*
X140718Y43144D01*
X140793Y43126D01*
X140796D01*
X140811Y43122D01*
X140833Y43118D01*
X140859Y43111D01*
X140892Y43104D01*
X140933Y43092D01*
X140974Y43081D01*
X141018Y43070D01*
X141114Y43044D01*
X141207Y43018D01*
X141251Y43004D01*
X141292Y42989D01*
X141329Y42978D01*
X141359Y42963D01*
X141362D01*
X141370Y42959D01*
X141381Y42952D01*
X141396Y42944D01*
X141436Y42922D01*
X141484Y42893D01*
X141540Y42852D01*
X141595Y42807D01*
X141647Y42756D01*
X141692Y42700D01*
X141695Y42693D01*
X141710Y42674D01*
X141725Y42641D01*
X141747Y42597D01*
X141766Y42545D01*
X141784Y42482D01*
X141795Y42412D01*
X141799Y42338D01*
Y42334D01*
Y42330D01*
Y42319D01*
Y42304D01*
X141791Y42264D01*
X141784Y42212D01*
X141769Y42153D01*
X141751Y42090D01*
X141721Y42023D01*
X141681Y41953D01*
Y41949D01*
X141677Y41945D01*
X141658Y41923D01*
X141632Y41890D01*
X141595Y41853D01*
X141547Y41809D01*
X141488Y41760D01*
X141421Y41716D01*
X141344Y41675D01*
X141340D01*
X141333Y41672D01*
X141322Y41668D01*
X141307Y41660D01*
X141285Y41653D01*
X141259Y41642D01*
X141200Y41627D01*
X141129Y41609D01*
X141044Y41590D01*
X140952Y41579D01*
X140852Y41575D01*
X140793D01*
X140763Y41579D01*
X140730D01*
X140693Y41583D01*
X140648Y41587D01*
X140556Y41601D01*
X140460Y41616D01*
X140363Y41642D01*
X140271Y41675D01*
X140267D01*
X140260Y41679D01*
X140249Y41686D01*
X140234Y41694D01*
X140189Y41716D01*
X140138Y41749D01*
X140078Y41794D01*
X140015Y41846D01*
X139956Y41908D01*
X139901Y41979D01*
Y41982D01*
X139893Y41990D01*
X139890Y42001D01*
X139879Y42016D01*
X139871Y42034D01*
X139860Y42056D01*
X139834Y42112D01*
X139808Y42182D01*
X139786Y42260D01*
X139771Y42349D01*
X139764Y42441D01*
X140082Y42471D01*
Y42467D01*
Y42463D01*
X140086Y42452D01*
Y42437D01*
X140093Y42404D01*
X140104Y42356D01*
X140119Y42308D01*
X140134Y42252D01*
X140160Y42201D01*
X140186Y42153D01*
X140189Y42149D01*
X140200Y42134D01*
X140219Y42108D01*
X140249Y42082D01*
X140286Y42049D01*
X140326Y42016D01*
X140382Y41982D01*
X140441Y41953D01*
X140445D01*
X140448Y41949D01*
X140460Y41945D01*
X140471Y41942D01*
X140508Y41931D01*
X140556Y41916D01*
X140615Y41901D01*
X140682Y41890D01*
X140755Y41883D01*
X140837Y41879D01*
X140870D01*
X140907Y41883D01*
X140952Y41886D01*
X141003Y41894D01*
X141063Y41901D01*
X141122Y41916D01*
X141177Y41934D01*
X141185Y41938D01*
X141203Y41945D01*
X141229Y41960D01*
X141262Y41975D01*
X141296Y42001D01*
X141333Y42027D01*
X141370Y42056D01*
X141399Y42093D01*
X141403Y42097D01*
X141410Y42112D01*
X141421Y42130D01*
X141436Y42160D01*
X141451Y42190D01*
X141462Y42227D01*
X141470Y42267D01*
X141473Y42312D01*
Y42315D01*
Y42334D01*
X141470Y42356D01*
X141466Y42386D01*
X141455Y42415D01*
X141444Y42452D01*
X141425Y42489D01*
X141399Y42523D01*
X141396Y42526D01*
X141384Y42537D01*
X141370Y42552D01*
X141344Y42574D01*
X141314Y42597D01*
X141273Y42623D01*
X141225Y42648D01*
X141170Y42671D01*
X141166Y42674D01*
X141148Y42678D01*
X141118Y42689D01*
X141100Y42693D01*
X141074Y42700D01*
X141048Y42711D01*
X141015Y42719D01*
X140978Y42730D01*
X140933Y42741D01*
X140889Y42752D01*
X140837Y42767D01*
X140778Y42782D01*
X140715Y42796D01*
X140711D01*
X140700Y42800D01*
X140682Y42804D01*
X140659Y42811D01*
X140630Y42819D01*
X140596Y42826D01*
X140522Y42848D01*
X140441Y42874D01*
X140356Y42900D01*
X140282Y42926D01*
X140249Y42941D01*
X140219Y42955D01*
X140215D01*
X140212Y42959D01*
X140189Y42974D01*
X140156Y42992D01*
X140119Y43022D01*
X140075Y43055D01*
X140030Y43096D01*
X139986Y43144D01*
X139949Y43196D01*
X139945Y43203D01*
X139934Y43222D01*
X139919Y43251D01*
X139904Y43288D01*
X139890Y43337D01*
X139875Y43392D01*
X139864Y43451D01*
X139860Y43514D01*
Y43518D01*
Y43522D01*
Y43533D01*
Y43547D01*
X139867Y43584D01*
X139875Y43633D01*
X139886Y43688D01*
X139904Y43751D01*
X139930Y43814D01*
X139967Y43877D01*
Y43881D01*
X139971Y43884D01*
X139990Y43906D01*
X140015Y43936D01*
X140049Y43973D01*
X140093Y44014D01*
X140149Y44058D01*
X140215Y44099D01*
X140289Y44136D01*
X140293D01*
X140300Y44140D01*
X140312Y44143D01*
X140326Y44151D01*
X140345Y44158D01*
X140371Y44165D01*
X140426Y44180D01*
X140497Y44195D01*
X140578Y44210D01*
X140663Y44221D01*
X140759Y44225D01*
X140807D01*
X140833Y44221D01*
D02*
G37*
G36*
X146487Y43877D02*
X145643D01*
Y41620D01*
X145303D01*
Y43877D01*
X144459D01*
Y44180D01*
X146487D01*
Y43877D01*
D02*
G37*
G36*
X144123D02*
X142609D01*
Y43096D01*
X144026D01*
Y42793D01*
X142609D01*
Y41923D01*
X144182D01*
Y41620D01*
X142269D01*
Y44180D01*
X144123D01*
Y43877D01*
D02*
G37*
G36*
X139349D02*
X137836D01*
Y43096D01*
X139253D01*
Y42793D01*
X137836D01*
Y41923D01*
X139409D01*
Y41620D01*
X137496D01*
Y44180D01*
X139349D01*
Y43877D01*
D02*
G37*
G36*
X136130Y44177D02*
X136164D01*
X136241Y44173D01*
X136323Y44162D01*
X136412Y44151D01*
X136493Y44132D01*
X136534Y44121D01*
X136567Y44110D01*
X136571D01*
X136574Y44106D01*
X136597Y44095D01*
X136630Y44080D01*
X136671Y44054D01*
X136715Y44021D01*
X136763Y43977D01*
X136808Y43925D01*
X136852Y43866D01*
Y43862D01*
X136856Y43858D01*
X136871Y43836D01*
X136885Y43799D01*
X136907Y43751D01*
X136926Y43696D01*
X136944Y43629D01*
X136956Y43559D01*
X136959Y43481D01*
Y43477D01*
Y43470D01*
Y43455D01*
X136956Y43437D01*
Y43411D01*
X136952Y43385D01*
X136937Y43322D01*
X136915Y43248D01*
X136885Y43170D01*
X136841Y43092D01*
X136811Y43055D01*
X136782Y43018D01*
X136778Y43015D01*
X136774Y43011D01*
X136763Y43000D01*
X136748Y42989D01*
X136730Y42974D01*
X136708Y42959D01*
X136678Y42941D01*
X136648Y42919D01*
X136611Y42900D01*
X136571Y42882D01*
X136526Y42859D01*
X136478Y42841D01*
X136423Y42826D01*
X136367Y42807D01*
X136304Y42796D01*
X136238Y42785D01*
X136245Y42782D01*
X136260Y42774D01*
X136282Y42759D01*
X136312Y42745D01*
X136378Y42704D01*
X136412Y42678D01*
X136441Y42656D01*
X136449Y42648D01*
X136467Y42630D01*
X136497Y42600D01*
X136534Y42563D01*
X136574Y42511D01*
X136623Y42456D01*
X136671Y42389D01*
X136723Y42315D01*
X137163Y41620D01*
X136741D01*
X136404Y42153D01*
Y42156D01*
X136397Y42164D01*
X136390Y42175D01*
X136378Y42190D01*
X136353Y42230D01*
X136319Y42282D01*
X136278Y42338D01*
X136238Y42397D01*
X136197Y42452D01*
X136160Y42504D01*
X136156Y42508D01*
X136145Y42523D01*
X136127Y42545D01*
X136101Y42571D01*
X136045Y42626D01*
X136016Y42652D01*
X135986Y42674D01*
X135983Y42678D01*
X135975Y42682D01*
X135960Y42689D01*
X135938Y42700D01*
X135916Y42711D01*
X135890Y42722D01*
X135831Y42741D01*
X135827D01*
X135820Y42745D01*
X135805D01*
X135786Y42748D01*
X135760Y42752D01*
X135731D01*
X135690Y42756D01*
X135254D01*
Y41620D01*
X134913D01*
Y44180D01*
X136101D01*
X136130Y44177D01*
D02*
G37*
G36*
X12264Y46349D02*
X12303D01*
X12406Y46338D01*
X12521Y46322D01*
X12641Y46295D01*
X12772Y46262D01*
X12892Y46218D01*
X12898D01*
X12909Y46213D01*
X12925Y46202D01*
X12947Y46191D01*
X13002Y46164D01*
X13073Y46114D01*
X13155Y46060D01*
X13236Y45989D01*
X13313Y45907D01*
X13384Y45814D01*
Y45809D01*
X13389Y45803D01*
X13400Y45787D01*
X13411Y45770D01*
X13438Y45716D01*
X13471Y45645D01*
X13509Y45557D01*
X13537Y45454D01*
X13564Y45345D01*
X13575Y45224D01*
X13094Y45186D01*
Y45192D01*
Y45203D01*
X13089Y45219D01*
X13083Y45246D01*
X13067Y45306D01*
X13045Y45388D01*
X13013Y45476D01*
X12963Y45563D01*
X12903Y45645D01*
X12827Y45721D01*
X12816Y45727D01*
X12789Y45749D01*
X12734Y45781D01*
X12663Y45814D01*
X12570Y45847D01*
X12461Y45880D01*
X12325Y45902D01*
X12172Y45907D01*
X12095D01*
X12062Y45902D01*
X12019Y45896D01*
X11920Y45885D01*
X11811Y45863D01*
X11702Y45836D01*
X11598Y45792D01*
X11555Y45765D01*
X11511Y45738D01*
X11500Y45732D01*
X11478Y45710D01*
X11445Y45672D01*
X11413Y45628D01*
X11374Y45568D01*
X11342Y45503D01*
X11320Y45426D01*
X11309Y45339D01*
Y45328D01*
Y45306D01*
X11315Y45268D01*
X11325Y45224D01*
X11342Y45170D01*
X11369Y45115D01*
X11402Y45061D01*
X11451Y45006D01*
X11456Y45001D01*
X11484Y44984D01*
X11506Y44968D01*
X11527Y44957D01*
X11560Y44941D01*
X11598Y44919D01*
X11648Y44902D01*
X11702Y44881D01*
X11762Y44859D01*
X11833Y44831D01*
X11910Y44809D01*
X11997Y44782D01*
X12095Y44760D01*
X12204Y44733D01*
X12210D01*
X12232Y44728D01*
X12264Y44722D01*
X12303Y44711D01*
X12352Y44700D01*
X12412Y44684D01*
X12472Y44668D01*
X12538Y44651D01*
X12679Y44613D01*
X12816Y44575D01*
X12881Y44553D01*
X12942Y44531D01*
X12996Y44515D01*
X13040Y44493D01*
X13045D01*
X13056Y44487D01*
X13073Y44476D01*
X13094Y44466D01*
X13155Y44433D01*
X13226Y44389D01*
X13307Y44329D01*
X13389Y44263D01*
X13466Y44187D01*
X13531Y44105D01*
X13537Y44094D01*
X13558Y44067D01*
X13580Y44018D01*
X13613Y43952D01*
X13640Y43876D01*
X13668Y43783D01*
X13684Y43679D01*
X13690Y43570D01*
Y43565D01*
Y43559D01*
Y43543D01*
Y43521D01*
X13679Y43461D01*
X13668Y43384D01*
X13646Y43297D01*
X13619Y43204D01*
X13575Y43106D01*
X13515Y43002D01*
Y42997D01*
X13509Y42991D01*
X13482Y42959D01*
X13444Y42909D01*
X13389Y42855D01*
X13318Y42789D01*
X13231Y42718D01*
X13133Y42653D01*
X13018Y42593D01*
X13013D01*
X13002Y42587D01*
X12985Y42582D01*
X12963Y42571D01*
X12931Y42560D01*
X12892Y42544D01*
X12805Y42522D01*
X12701Y42494D01*
X12576Y42467D01*
X12439Y42451D01*
X12292Y42445D01*
X12204D01*
X12161Y42451D01*
X12112D01*
X12057Y42456D01*
X11992Y42462D01*
X11855Y42483D01*
X11713Y42505D01*
X11571Y42544D01*
X11435Y42593D01*
X11429D01*
X11418Y42598D01*
X11402Y42609D01*
X11380Y42620D01*
X11315Y42653D01*
X11238Y42702D01*
X11151Y42768D01*
X11058Y42844D01*
X10971Y42937D01*
X10889Y43040D01*
Y43046D01*
X10878Y43057D01*
X10872Y43073D01*
X10856Y43095D01*
X10845Y43122D01*
X10829Y43155D01*
X10790Y43237D01*
X10752Y43341D01*
X10719Y43455D01*
X10697Y43587D01*
X10687Y43723D01*
X11156Y43767D01*
Y43761D01*
Y43756D01*
X11162Y43739D01*
Y43718D01*
X11173Y43668D01*
X11189Y43597D01*
X11211Y43526D01*
X11233Y43444D01*
X11271Y43368D01*
X11309Y43297D01*
X11315Y43292D01*
X11331Y43270D01*
X11358Y43232D01*
X11402Y43193D01*
X11456Y43144D01*
X11517Y43095D01*
X11598Y43046D01*
X11686Y43002D01*
X11691D01*
X11697Y42997D01*
X11713Y42991D01*
X11729Y42986D01*
X11784Y42970D01*
X11855Y42948D01*
X11942Y42926D01*
X12041Y42909D01*
X12150Y42898D01*
X12270Y42893D01*
X12319D01*
X12374Y42898D01*
X12439Y42904D01*
X12516Y42915D01*
X12603Y42926D01*
X12690Y42948D01*
X12772Y42975D01*
X12783Y42980D01*
X12810Y42991D01*
X12849Y43013D01*
X12898Y43035D01*
X12947Y43073D01*
X13002Y43111D01*
X13056Y43155D01*
X13100Y43210D01*
X13105Y43215D01*
X13116Y43237D01*
X13133Y43264D01*
X13155Y43308D01*
X13176Y43352D01*
X13193Y43406D01*
X13204Y43466D01*
X13209Y43532D01*
Y43537D01*
Y43565D01*
X13204Y43597D01*
X13198Y43641D01*
X13182Y43685D01*
X13165Y43739D01*
X13138Y43794D01*
X13100Y43843D01*
X13094Y43848D01*
X13078Y43865D01*
X13056Y43887D01*
X13018Y43920D01*
X12974Y43952D01*
X12914Y43990D01*
X12843Y44029D01*
X12761Y44061D01*
X12756Y44067D01*
X12729Y44072D01*
X12685Y44089D01*
X12658Y44094D01*
X12619Y44105D01*
X12581Y44122D01*
X12532Y44133D01*
X12477Y44149D01*
X12412Y44165D01*
X12346Y44182D01*
X12270Y44203D01*
X12183Y44225D01*
X12090Y44247D01*
X12084D01*
X12068Y44253D01*
X12041Y44258D01*
X12008Y44269D01*
X11964Y44280D01*
X11915Y44291D01*
X11806Y44324D01*
X11686Y44362D01*
X11560Y44400D01*
X11451Y44438D01*
X11402Y44460D01*
X11358Y44482D01*
X11353D01*
X11347Y44487D01*
X11315Y44509D01*
X11265Y44537D01*
X11211Y44580D01*
X11145Y44629D01*
X11080Y44689D01*
X11014Y44760D01*
X10960Y44837D01*
X10954Y44848D01*
X10938Y44875D01*
X10916Y44919D01*
X10894Y44973D01*
X10872Y45044D01*
X10850Y45126D01*
X10834Y45213D01*
X10829Y45306D01*
Y45312D01*
Y45317D01*
Y45334D01*
Y45355D01*
X10839Y45410D01*
X10850Y45481D01*
X10867Y45563D01*
X10894Y45656D01*
X10932Y45749D01*
X10987Y45841D01*
Y45847D01*
X10992Y45852D01*
X11020Y45885D01*
X11058Y45929D01*
X11107Y45983D01*
X11173Y46044D01*
X11254Y46109D01*
X11353Y46169D01*
X11462Y46224D01*
X11467D01*
X11478Y46229D01*
X11495Y46235D01*
X11517Y46246D01*
X11544Y46256D01*
X11582Y46267D01*
X11664Y46289D01*
X11768Y46311D01*
X11888Y46333D01*
X12013Y46349D01*
X12155Y46355D01*
X12226D01*
X12264Y46349D01*
D02*
G37*
G36*
X16010Y46284D02*
X16103Y46278D01*
X16201Y46273D01*
X16294Y46262D01*
X16376Y46251D01*
X16387D01*
X16425Y46240D01*
X16474Y46229D01*
X16540Y46213D01*
X16611Y46185D01*
X16687Y46153D01*
X16769Y46114D01*
X16840Y46071D01*
X16851Y46065D01*
X16873Y46049D01*
X16905Y46016D01*
X16949Y45978D01*
X16998Y45929D01*
X17048Y45863D01*
X17102Y45792D01*
X17146Y45710D01*
X17151Y45700D01*
X17162Y45672D01*
X17184Y45623D01*
X17206Y45557D01*
X17222Y45481D01*
X17244Y45394D01*
X17255Y45295D01*
X17260Y45192D01*
Y45186D01*
Y45170D01*
Y45148D01*
X17255Y45110D01*
X17249Y45072D01*
X17244Y45022D01*
X17233Y44968D01*
X17222Y44908D01*
X17184Y44782D01*
X17162Y44717D01*
X17129Y44646D01*
X17091Y44575D01*
X17053Y44509D01*
X17004Y44444D01*
X16949Y44378D01*
X16944Y44373D01*
X16933Y44362D01*
X16916Y44345D01*
X16889Y44329D01*
X16856Y44302D01*
X16813Y44274D01*
X16758Y44242D01*
X16698Y44214D01*
X16627Y44182D01*
X16545Y44149D01*
X16458Y44122D01*
X16354Y44100D01*
X16245Y44078D01*
X16125Y44061D01*
X15988Y44051D01*
X15846Y44045D01*
X14880D01*
Y42511D01*
X14378D01*
Y46289D01*
X15928D01*
X16010Y46284D01*
D02*
G37*
G36*
X10075Y45841D02*
X7842D01*
Y44689D01*
X9933D01*
Y44242D01*
X7842D01*
Y42959D01*
X10162D01*
Y42511D01*
X7340D01*
Y46289D01*
X10075D01*
Y45841D01*
D02*
G37*
G36*
X7547Y58938D02*
Y58933D01*
Y58911D01*
Y58883D01*
Y58845D01*
X7542Y58796D01*
Y58741D01*
X7536Y58676D01*
X7531Y58610D01*
X7514Y58463D01*
X7492Y58310D01*
X7460Y58163D01*
X7438Y58092D01*
X7416Y58026D01*
Y58021D01*
X7411Y58010D01*
X7400Y57993D01*
X7389Y57972D01*
X7356Y57911D01*
X7307Y57835D01*
X7241Y57748D01*
X7165Y57660D01*
X7067Y57568D01*
X6946Y57486D01*
X6941D01*
X6930Y57475D01*
X6914Y57469D01*
X6886Y57453D01*
X6854Y57436D01*
X6810Y57420D01*
X6766Y57404D01*
X6712Y57382D01*
X6651Y57360D01*
X6586Y57344D01*
X6515Y57327D01*
X6433Y57311D01*
X6351Y57300D01*
X6264Y57289D01*
X6067Y57278D01*
X6018D01*
X5980Y57284D01*
X5936D01*
X5882Y57289D01*
X5822Y57294D01*
X5762Y57300D01*
X5625Y57322D01*
X5478Y57354D01*
X5336Y57398D01*
X5199Y57458D01*
X5194D01*
X5183Y57469D01*
X5166Y57480D01*
X5145Y57491D01*
X5085Y57535D01*
X5014Y57595D01*
X4932Y57671D01*
X4855Y57759D01*
X4779Y57868D01*
X4719Y57988D01*
Y57993D01*
X4713Y58004D01*
X4708Y58026D01*
X4697Y58053D01*
X4686Y58086D01*
X4675Y58130D01*
X4659Y58179D01*
X4648Y58239D01*
X4637Y58305D01*
X4620Y58376D01*
X4609Y58452D01*
X4599Y58534D01*
X4588Y58627D01*
X4582Y58725D01*
X4577Y58829D01*
Y58938D01*
Y61122D01*
X5079D01*
Y58938D01*
Y58933D01*
Y58916D01*
Y58889D01*
Y58856D01*
X5085Y58818D01*
Y58769D01*
X5090Y58665D01*
X5101Y58545D01*
X5117Y58425D01*
X5139Y58310D01*
X5150Y58261D01*
X5166Y58212D01*
X5172Y58201D01*
X5183Y58174D01*
X5210Y58135D01*
X5243Y58081D01*
X5281Y58026D01*
X5336Y57966D01*
X5401Y57906D01*
X5478Y57857D01*
X5488Y57851D01*
X5516Y57835D01*
X5565Y57819D01*
X5630Y57797D01*
X5707Y57770D01*
X5805Y57753D01*
X5909Y57737D01*
X6024Y57731D01*
X6078D01*
X6111Y57737D01*
X6160D01*
X6209Y57742D01*
X6329Y57764D01*
X6460Y57791D01*
X6586Y57835D01*
X6706Y57895D01*
X6761Y57933D01*
X6810Y57977D01*
X6815Y57982D01*
X6821Y57988D01*
X6832Y58004D01*
X6848Y58026D01*
X6865Y58059D01*
X6886Y58092D01*
X6908Y58141D01*
X6930Y58190D01*
X6952Y58250D01*
X6968Y58321D01*
X6990Y58403D01*
X7006Y58490D01*
X7023Y58588D01*
X7034Y58692D01*
X7045Y58812D01*
Y58938D01*
Y61122D01*
X7547D01*
Y58938D01*
D02*
G37*
G36*
X18423Y60674D02*
X17178D01*
Y57344D01*
X16676D01*
Y60674D01*
X15431D01*
Y61122D01*
X18423D01*
Y60674D01*
D02*
G37*
G36*
X13706Y61116D02*
X13755D01*
X13870Y61111D01*
X13990Y61095D01*
X14121Y61078D01*
X14241Y61051D01*
X14301Y61035D01*
X14350Y61018D01*
X14356D01*
X14361Y61013D01*
X14394Y60996D01*
X14443Y60975D01*
X14503Y60936D01*
X14569Y60887D01*
X14639Y60822D01*
X14705Y60745D01*
X14771Y60658D01*
Y60652D01*
X14776Y60647D01*
X14798Y60614D01*
X14820Y60559D01*
X14852Y60489D01*
X14880Y60407D01*
X14907Y60308D01*
X14923Y60205D01*
X14929Y60090D01*
Y60084D01*
Y60074D01*
Y60052D01*
X14923Y60024D01*
Y59986D01*
X14918Y59948D01*
X14896Y59855D01*
X14863Y59746D01*
X14820Y59631D01*
X14754Y59517D01*
X14710Y59462D01*
X14667Y59408D01*
X14661Y59402D01*
X14656Y59397D01*
X14639Y59380D01*
X14618Y59364D01*
X14590Y59342D01*
X14558Y59320D01*
X14514Y59293D01*
X14470Y59260D01*
X14416Y59233D01*
X14356Y59206D01*
X14290Y59173D01*
X14219Y59145D01*
X14137Y59124D01*
X14055Y59096D01*
X13962Y59080D01*
X13864Y59064D01*
X13875Y59058D01*
X13897Y59047D01*
X13930Y59025D01*
X13973Y59003D01*
X14072Y58943D01*
X14121Y58905D01*
X14164Y58872D01*
X14175Y58862D01*
X14203Y58834D01*
X14246Y58790D01*
X14301Y58736D01*
X14361Y58659D01*
X14432Y58578D01*
X14503Y58479D01*
X14579Y58370D01*
X15229Y57344D01*
X14607D01*
X14110Y58130D01*
Y58135D01*
X14099Y58146D01*
X14088Y58163D01*
X14072Y58184D01*
X14033Y58245D01*
X13984Y58321D01*
X13924Y58403D01*
X13864Y58490D01*
X13804Y58572D01*
X13749Y58649D01*
X13744Y58654D01*
X13728Y58676D01*
X13700Y58709D01*
X13662Y58747D01*
X13580Y58829D01*
X13537Y58867D01*
X13493Y58900D01*
X13487Y58905D01*
X13476Y58911D01*
X13455Y58921D01*
X13422Y58938D01*
X13389Y58954D01*
X13351Y58971D01*
X13264Y58998D01*
X13258D01*
X13247Y59003D01*
X13225D01*
X13198Y59009D01*
X13160Y59014D01*
X13116D01*
X13056Y59020D01*
X12412D01*
Y57344D01*
X11909D01*
Y61122D01*
X13662D01*
X13706Y61116D01*
D02*
G37*
G36*
X11500Y57344D02*
X10932D01*
X10490Y58490D01*
X8907D01*
X8497Y57344D01*
X7967D01*
X9409Y61122D01*
X9955D01*
X11500Y57344D01*
D02*
G37*
G36*
X233198Y14726D02*
Y14720D01*
Y14704D01*
Y14681D01*
Y14648D01*
X233192Y14604D01*
Y14559D01*
X233181Y14454D01*
X233170Y14332D01*
X233148Y14204D01*
X233115Y14087D01*
X233076Y13976D01*
Y13971D01*
X233070Y13965D01*
X233053Y13932D01*
X233026Y13888D01*
X232987Y13827D01*
X232931Y13766D01*
X232870Y13699D01*
X232793Y13632D01*
X232704Y13577D01*
X232693Y13571D01*
X232659Y13555D01*
X232609Y13532D01*
X232537Y13510D01*
X232449Y13483D01*
X232349Y13460D01*
X232238Y13444D01*
X232116Y13438D01*
X232066D01*
X232032Y13444D01*
X231988Y13449D01*
X231943Y13455D01*
X231827Y13477D01*
X231705Y13510D01*
X231577Y13560D01*
X231510Y13593D01*
X231450Y13632D01*
X231394Y13677D01*
X231339Y13727D01*
X231333Y13732D01*
X231327Y13738D01*
X231316Y13760D01*
X231300Y13782D01*
X231277Y13810D01*
X231255Y13849D01*
X231233Y13893D01*
X231205Y13943D01*
X231183Y13999D01*
X231161Y14065D01*
X231139Y14132D01*
X231117Y14209D01*
X231105Y14293D01*
X231089Y14387D01*
X231083Y14481D01*
Y14587D01*
X231544Y14653D01*
Y14648D01*
Y14637D01*
Y14615D01*
X231549Y14581D01*
X231555Y14548D01*
Y14509D01*
X231572Y14415D01*
X231588Y14315D01*
X231622Y14215D01*
X231655Y14126D01*
X231677Y14087D01*
X231705Y14054D01*
X231710Y14049D01*
X231733Y14032D01*
X231766Y14004D01*
X231810Y13976D01*
X231871Y13943D01*
X231938Y13921D01*
X232021Y13899D01*
X232110Y13893D01*
X232143D01*
X232176Y13899D01*
X232226Y13904D01*
X232276Y13915D01*
X232332Y13927D01*
X232387Y13949D01*
X232443Y13976D01*
X232449Y13982D01*
X232465Y13993D01*
X232487Y14015D01*
X232521Y14038D01*
X232548Y14076D01*
X232582Y14115D01*
X232609Y14160D01*
X232632Y14215D01*
Y14221D01*
X232643Y14243D01*
X232648Y14282D01*
X232659Y14332D01*
X232670Y14398D01*
X232676Y14481D01*
X232687Y14581D01*
Y14698D01*
Y17345D01*
X233198D01*
Y14726D01*
D02*
G37*
G36*
X235201Y17356D02*
X235246Y17351D01*
X235301Y17345D01*
X235362Y17334D01*
X235423Y17323D01*
X235568Y17284D01*
X235712Y17229D01*
X235784Y17195D01*
X235856Y17157D01*
X235923Y17107D01*
X235984Y17051D01*
X235989Y17046D01*
X236000Y17040D01*
X236012Y17018D01*
X236034Y16996D01*
X236062Y16968D01*
X236089Y16929D01*
X236117Y16890D01*
X236150Y16840D01*
X236206Y16735D01*
X236261Y16602D01*
X236283Y16535D01*
X236295Y16457D01*
X236306Y16380D01*
X236311Y16296D01*
Y16285D01*
Y16258D01*
X236306Y16213D01*
X236300Y16152D01*
X236289Y16085D01*
X236267Y16008D01*
X236245Y15924D01*
X236211Y15841D01*
X236206Y15830D01*
X236195Y15802D01*
X236173Y15758D01*
X236139Y15697D01*
X236095Y15630D01*
X236039Y15547D01*
X235973Y15464D01*
X235895Y15370D01*
X235884Y15358D01*
X235856Y15325D01*
X235828Y15297D01*
X235801Y15270D01*
X235767Y15236D01*
X235723Y15192D01*
X235679Y15147D01*
X235623Y15098D01*
X235568Y15042D01*
X235501Y14981D01*
X235429Y14920D01*
X235351Y14848D01*
X235262Y14776D01*
X235174Y14698D01*
X235168Y14692D01*
X235157Y14681D01*
X235135Y14665D01*
X235107Y14642D01*
X235074Y14609D01*
X235035Y14576D01*
X234946Y14504D01*
X234852Y14420D01*
X234763Y14337D01*
X234685Y14265D01*
X234652Y14237D01*
X234624Y14209D01*
X234618Y14204D01*
X234602Y14187D01*
X234580Y14165D01*
X234552Y14132D01*
X234524Y14093D01*
X234491Y14054D01*
X234424Y13960D01*
X236317D01*
Y13505D01*
X233769D01*
Y13510D01*
Y13532D01*
Y13566D01*
X233775Y13610D01*
X233781Y13660D01*
X233792Y13716D01*
X233803Y13771D01*
X233825Y13832D01*
Y13838D01*
X233830Y13843D01*
X233841Y13877D01*
X233864Y13927D01*
X233897Y13993D01*
X233941Y14071D01*
X233997Y14160D01*
X234058Y14248D01*
X234136Y14343D01*
Y14348D01*
X234147Y14354D01*
X234174Y14387D01*
X234225Y14437D01*
X234297Y14509D01*
X234380Y14593D01*
X234485Y14692D01*
X234613Y14803D01*
X234752Y14920D01*
X234757Y14925D01*
X234780Y14942D01*
X234813Y14970D01*
X234852Y15003D01*
X234902Y15048D01*
X234963Y15098D01*
X235024Y15153D01*
X235096Y15214D01*
X235235Y15347D01*
X235373Y15481D01*
X235440Y15547D01*
X235501Y15614D01*
X235557Y15675D01*
X235601Y15736D01*
Y15741D01*
X235612Y15747D01*
X235623Y15764D01*
X235634Y15786D01*
X235673Y15847D01*
X235717Y15919D01*
X235756Y16008D01*
X235795Y16102D01*
X235817Y16207D01*
X235828Y16307D01*
Y16313D01*
Y16319D01*
X235823Y16352D01*
X235817Y16407D01*
X235801Y16468D01*
X235778Y16546D01*
X235740Y16624D01*
X235690Y16702D01*
X235623Y16779D01*
X235612Y16790D01*
X235584Y16813D01*
X235545Y16840D01*
X235484Y16879D01*
X235407Y16912D01*
X235318Y16946D01*
X235212Y16968D01*
X235096Y16973D01*
X235063D01*
X235040Y16968D01*
X234974Y16962D01*
X234896Y16946D01*
X234813Y16924D01*
X234718Y16885D01*
X234630Y16835D01*
X234546Y16768D01*
X234535Y16757D01*
X234513Y16729D01*
X234480Y16685D01*
X234447Y16618D01*
X234408Y16541D01*
X234374Y16441D01*
X234352Y16330D01*
X234341Y16202D01*
X233858Y16252D01*
Y16258D01*
X233864Y16274D01*
Y16302D01*
X233869Y16341D01*
X233880Y16385D01*
X233892Y16435D01*
X233908Y16496D01*
X233925Y16557D01*
X233969Y16690D01*
X234036Y16824D01*
X234075Y16890D01*
X234125Y16957D01*
X234174Y17018D01*
X234230Y17073D01*
X234236Y17079D01*
X234247Y17084D01*
X234263Y17101D01*
X234291Y17118D01*
X234324Y17140D01*
X234363Y17162D01*
X234408Y17190D01*
X234463Y17218D01*
X234524Y17245D01*
X234591Y17273D01*
X234663Y17295D01*
X234741Y17318D01*
X234824Y17334D01*
X234913Y17351D01*
X235007Y17356D01*
X235107Y17362D01*
X235162D01*
X235201Y17356D01*
D02*
G37*
%LPC*%
G36*
X133223Y55320D02*
X132416D01*
Y54473D01*
X133178D01*
X133223Y54476D01*
X133275Y54480D01*
X133334Y54484D01*
X133393Y54491D01*
X133452Y54502D01*
X133504Y54517D01*
X133511Y54521D01*
X133526Y54528D01*
X133548Y54539D01*
X133578Y54554D01*
X133611Y54576D01*
X133645Y54602D01*
X133678Y54635D01*
X133704Y54672D01*
X133707Y54676D01*
X133715Y54691D01*
X133726Y54713D01*
X133741Y54743D01*
X133752Y54776D01*
X133763Y54813D01*
X133771Y54857D01*
X133774Y54902D01*
Y54905D01*
Y54909D01*
X133771Y54931D01*
X133767Y54965D01*
X133759Y55009D01*
X133741Y55054D01*
X133719Y55105D01*
X133685Y55153D01*
X133641Y55202D01*
X133633Y55205D01*
X133615Y55220D01*
X133585Y55238D01*
X133537Y55261D01*
X133482Y55283D01*
X133408Y55301D01*
X133323Y55316D01*
X133223Y55320D01*
D02*
G37*
G36*
X46860Y46701D02*
X46253D01*
Y45932D01*
X46882D01*
X46930Y45935D01*
X46982Y45939D01*
X47034Y45943D01*
X47085Y45950D01*
X47126Y45958D01*
X47133Y45961D01*
X47148Y45965D01*
X47170Y45976D01*
X47200Y45991D01*
X47230Y46006D01*
X47263Y46028D01*
X47296Y46058D01*
X47322Y46087D01*
X47326Y46091D01*
X47333Y46102D01*
X47344Y46124D01*
X47355Y46150D01*
X47367Y46180D01*
X47378Y46217D01*
X47385Y46261D01*
X47389Y46309D01*
Y46317D01*
Y46331D01*
X47385Y46354D01*
X47381Y46383D01*
X47374Y46420D01*
X47363Y46457D01*
X47348Y46494D01*
X47326Y46531D01*
X47322Y46535D01*
X47315Y46546D01*
X47300Y46564D01*
X47282Y46583D01*
X47256Y46605D01*
X47226Y46627D01*
X47189Y46650D01*
X47148Y46664D01*
X47144D01*
X47126Y46672D01*
X47100Y46676D01*
X47059Y46683D01*
X47004Y46690D01*
X46941Y46694D01*
X46860Y46701D01*
D02*
G37*
G36*
X46926Y45628D02*
X46253D01*
Y44748D01*
X46982D01*
X47059Y44752D01*
X47093Y44755D01*
X47122Y44759D01*
X47126D01*
X47141Y44763D01*
X47163Y44766D01*
X47189Y44774D01*
X47252Y44796D01*
X47315Y44826D01*
X47319Y44829D01*
X47330Y44837D01*
X47344Y44848D01*
X47363Y44862D01*
X47381Y44885D01*
X47407Y44907D01*
X47426Y44936D01*
X47448Y44970D01*
X47452Y44973D01*
X47455Y44985D01*
X47463Y45007D01*
X47474Y45033D01*
X47485Y45062D01*
X47492Y45099D01*
X47496Y45144D01*
X47500Y45188D01*
Y45195D01*
Y45210D01*
X47496Y45240D01*
X47489Y45273D01*
X47481Y45310D01*
X47466Y45351D01*
X47448Y45392D01*
X47422Y45432D01*
X47418Y45436D01*
X47407Y45451D01*
X47392Y45469D01*
X47370Y45491D01*
X47341Y45517D01*
X47304Y45543D01*
X47263Y45566D01*
X47215Y45584D01*
X47207Y45588D01*
X47193Y45591D01*
X47159Y45599D01*
X47119Y45606D01*
X47067Y45614D01*
X47004Y45621D01*
X46926Y45628D01*
D02*
G37*
G36*
X46995Y59177D02*
X46388D01*
Y58407D01*
X47017D01*
X47065Y58411D01*
X47117Y58415D01*
X47168Y58418D01*
X47220Y58426D01*
X47261Y58433D01*
X47268Y58437D01*
X47283Y58441D01*
X47305Y58452D01*
X47335Y58466D01*
X47365Y58481D01*
X47398Y58503D01*
X47431Y58533D01*
X47457Y58563D01*
X47461Y58566D01*
X47468Y58577D01*
X47479Y58600D01*
X47490Y58626D01*
X47502Y58655D01*
X47513Y58692D01*
X47520Y58736D01*
X47524Y58785D01*
Y58792D01*
Y58807D01*
X47520Y58829D01*
X47516Y58859D01*
X47509Y58896D01*
X47498Y58933D01*
X47483Y58970D01*
X47461Y59007D01*
X47457Y59010D01*
X47450Y59021D01*
X47435Y59040D01*
X47416Y59058D01*
X47390Y59081D01*
X47361Y59103D01*
X47324Y59125D01*
X47283Y59140D01*
X47280D01*
X47261Y59147D01*
X47235Y59151D01*
X47194Y59158D01*
X47139Y59166D01*
X47076Y59169D01*
X46995Y59177D01*
D02*
G37*
G36*
X47061Y58104D02*
X46388D01*
Y57223D01*
X47117D01*
X47194Y57227D01*
X47228Y57231D01*
X47257Y57234D01*
X47261D01*
X47276Y57238D01*
X47298Y57242D01*
X47324Y57249D01*
X47387Y57271D01*
X47450Y57301D01*
X47453Y57305D01*
X47464Y57312D01*
X47479Y57323D01*
X47498Y57338D01*
X47516Y57360D01*
X47542Y57382D01*
X47561Y57412D01*
X47583Y57445D01*
X47587Y57449D01*
X47590Y57460D01*
X47598Y57482D01*
X47609Y57508D01*
X47620Y57538D01*
X47627Y57575D01*
X47631Y57619D01*
X47635Y57664D01*
Y57671D01*
Y57686D01*
X47631Y57715D01*
X47624Y57749D01*
X47616Y57786D01*
X47601Y57826D01*
X47583Y57867D01*
X47557Y57908D01*
X47553Y57911D01*
X47542Y57926D01*
X47527Y57945D01*
X47505Y57967D01*
X47476Y57993D01*
X47439Y58019D01*
X47398Y58041D01*
X47350Y58059D01*
X47342Y58063D01*
X47328Y58067D01*
X47294Y58074D01*
X47254Y58082D01*
X47202Y58089D01*
X47139Y58096D01*
X47061Y58104D01*
D02*
G37*
G36*
X144976Y61795D02*
X144170D01*
Y60948D01*
X144932D01*
X144976Y60952D01*
X145028Y60955D01*
X145087Y60959D01*
X145147Y60966D01*
X145206Y60978D01*
X145258Y60992D01*
X145265Y60996D01*
X145280Y61004D01*
X145302Y61015D01*
X145332Y61029D01*
X145365Y61052D01*
X145398Y61077D01*
X145431Y61111D01*
X145457Y61148D01*
X145461Y61151D01*
X145469Y61166D01*
X145480Y61189D01*
X145494Y61218D01*
X145505Y61251D01*
X145517Y61288D01*
X145524Y61333D01*
X145528Y61377D01*
Y61381D01*
Y61385D01*
X145524Y61407D01*
X145520Y61440D01*
X145513Y61484D01*
X145494Y61529D01*
X145472Y61581D01*
X145439Y61629D01*
X145395Y61677D01*
X145387Y61681D01*
X145369Y61695D01*
X145339Y61714D01*
X145291Y61736D01*
X145235Y61758D01*
X145161Y61777D01*
X145076Y61792D01*
X144976Y61795D01*
D02*
G37*
G36*
X136060Y43895D02*
X135254D01*
Y43048D01*
X136016D01*
X136060Y43052D01*
X136112Y43055D01*
X136171Y43059D01*
X136230Y43066D01*
X136290Y43078D01*
X136341Y43092D01*
X136349Y43096D01*
X136364Y43104D01*
X136386Y43115D01*
X136415Y43129D01*
X136449Y43152D01*
X136482Y43178D01*
X136515Y43211D01*
X136541Y43248D01*
X136545Y43251D01*
X136552Y43266D01*
X136563Y43288D01*
X136578Y43318D01*
X136589Y43351D01*
X136600Y43388D01*
X136608Y43433D01*
X136611Y43477D01*
Y43481D01*
Y43485D01*
X136608Y43507D01*
X136604Y43540D01*
X136597Y43584D01*
X136578Y43629D01*
X136556Y43681D01*
X136523Y43729D01*
X136478Y43777D01*
X136471Y43781D01*
X136452Y43795D01*
X136423Y43814D01*
X136375Y43836D01*
X136319Y43858D01*
X136245Y43877D01*
X136160Y43892D01*
X136060Y43895D01*
D02*
G37*
G36*
X15961Y45841D02*
X14880D01*
Y44493D01*
X15895D01*
X15934Y44498D01*
X15972D01*
X16015Y44504D01*
X16119Y44515D01*
X16234Y44537D01*
X16349Y44569D01*
X16452Y44613D01*
X16501Y44640D01*
X16540Y44673D01*
X16551Y44684D01*
X16572Y44706D01*
X16605Y44749D01*
X16643Y44804D01*
X16682Y44875D01*
X16714Y44962D01*
X16736Y45061D01*
X16747Y45175D01*
Y45181D01*
Y45186D01*
Y45213D01*
X16742Y45263D01*
X16731Y45317D01*
X16720Y45377D01*
X16698Y45448D01*
X16665Y45514D01*
X16627Y45579D01*
X16622Y45585D01*
X16605Y45607D01*
X16578Y45634D01*
X16545Y45672D01*
X16496Y45710D01*
X16441Y45743D01*
X16381Y45776D01*
X16310Y45803D01*
X16305D01*
X16283Y45809D01*
X16250Y45814D01*
X16207Y45825D01*
X16141Y45831D01*
X16059Y45836D01*
X15961Y45841D01*
D02*
G37*
G36*
X13602Y60702D02*
X12412D01*
Y59451D01*
X13537D01*
X13602Y59457D01*
X13679Y59462D01*
X13766Y59468D01*
X13853Y59478D01*
X13941Y59495D01*
X14017Y59517D01*
X14028Y59522D01*
X14050Y59533D01*
X14083Y59549D01*
X14126Y59571D01*
X14175Y59604D01*
X14224Y59642D01*
X14274Y59691D01*
X14312Y59746D01*
X14317Y59751D01*
X14328Y59773D01*
X14345Y59806D01*
X14367Y59850D01*
X14383Y59899D01*
X14399Y59953D01*
X14410Y60019D01*
X14416Y60084D01*
Y60090D01*
Y60095D01*
X14410Y60128D01*
X14405Y60177D01*
X14394Y60243D01*
X14367Y60308D01*
X14334Y60385D01*
X14285Y60456D01*
X14219Y60527D01*
X14208Y60532D01*
X14181Y60554D01*
X14137Y60581D01*
X14066Y60614D01*
X13984Y60647D01*
X13875Y60674D01*
X13749Y60696D01*
X13602Y60702D01*
D02*
G37*
G36*
X9671Y60729D02*
Y60723D01*
X9665Y60712D01*
Y60691D01*
X9655Y60669D01*
X9649Y60631D01*
X9638Y60592D01*
X9616Y60500D01*
X9589Y60390D01*
X9551Y60270D01*
X9513Y60139D01*
X9463Y60003D01*
X9054Y58900D01*
X10332D01*
X9938Y59937D01*
Y59943D01*
X9933Y59959D01*
X9922Y59986D01*
X9911Y60019D01*
X9895Y60057D01*
X9878Y60106D01*
X9862Y60161D01*
X9840Y60216D01*
X9797Y60341D01*
X9753Y60472D01*
X9709Y60603D01*
X9671Y60729D01*
D02*
G37*
%LPD*%
D10*
X21292Y55000D02*
G03*
X21292Y55000I-492J0D01*
G01*
X24392Y42900D02*
G03*
X24392Y42900I-492J0D01*
G01*
X67592Y43389D02*
G03*
X67592Y43389I-492J0D01*
G01*
D11*
X31100Y90776D02*
Y100224D01*
Y90776D02*
X271100D01*
Y100224D01*
X31100D02*
X271100D01*
X15407Y100200D02*
X20328D01*
X939D02*
X3793D01*
X939Y64216D02*
Y100200D01*
X15407Y64216D02*
X20328D01*
X939D02*
X3793D01*
X411Y3208D02*
X3265D01*
X14879D02*
X19801D01*
X411D02*
Y39192D01*
X3265D01*
X14879D02*
X19801D01*
X39124Y42428D02*
Y60972D01*
X27076Y42428D02*
X39124D01*
X27076D02*
Y60972D01*
X39124D01*
X31600Y10024D02*
X271600D01*
Y576D02*
Y10024D01*
X31600Y576D02*
X271600D01*
X31600D02*
Y10024D01*
X178261Y21466D02*
Y29734D01*
X185939Y21466D02*
Y29734D01*
X81547Y87137D02*
X83515D01*
Y85168D02*
Y87137D01*
X67767D02*
X69736D01*
X67767Y85168D02*
Y87137D01*
X81547Y71389D02*
X83515D01*
Y73357D01*
X67767Y71389D02*
X69736D01*
X67767D02*
Y73357D01*
X114100Y58491D02*
X116659D01*
Y61346D01*
X114100Y69909D02*
X116659D01*
Y67054D02*
Y69909D01*
X114100Y72991D02*
X116659D01*
Y75846D01*
X114100Y84409D02*
X116659D01*
Y81554D02*
Y84409D01*
X72316Y17011D02*
Y43389D01*
X86883Y17011D02*
Y43389D01*
X72316D02*
X86883D01*
X72316Y17011D02*
X86883D01*
D12*
X38200Y69700D02*
X39000D01*
Y72800D01*
X38200D02*
X39000D01*
X39200Y82800D02*
Y83600D01*
X36100Y82800D02*
X39200D01*
X36100D02*
Y83600D01*
X34225Y75175D02*
Y75975D01*
Y75175D02*
X37325D01*
Y75975D01*
X31000Y35800D02*
Y36600D01*
X34100D01*
Y35800D02*
Y36600D01*
X33100Y18800D02*
Y19600D01*
Y18800D02*
X36200D01*
Y19600D01*
Y13300D02*
Y14100D01*
X33100Y13300D02*
X36200D01*
X33100D02*
Y14100D01*
D13*
X33400Y72800D02*
X38200D01*
X33400Y69700D02*
Y72800D01*
Y69700D02*
X38200D01*
X36100Y83600D02*
Y88400D01*
X39200D01*
Y83600D02*
Y88400D01*
X37325Y75975D02*
Y80775D01*
X34225D02*
X37325D01*
X34225Y75975D02*
Y80775D01*
X34100Y31000D02*
Y35800D01*
X31000Y31000D02*
X34100D01*
X31000D02*
Y35800D01*
X36200Y19600D02*
Y24400D01*
X33100D02*
X36200D01*
X33100Y19600D02*
Y24400D01*
Y14100D02*
Y18900D01*
X36200D01*
Y14100D02*
Y18900D01*
D14*
X30800Y36200D02*
X34400D01*
X30800Y31100D02*
Y36100D01*
Y31100D02*
X34400D01*
Y31200D01*
Y36200D01*
D15*
X130478Y14389D02*
X152722D01*
X129789Y21377D02*
Y31023D01*
X130478Y38011D02*
X152722D01*
X153411Y21377D02*
Y31023D01*
Y71377D02*
Y81023D01*
X130478Y88011D02*
X152722D01*
X129789Y71377D02*
Y81023D01*
X130478Y64389D02*
X152722D01*
X57531Y73090D02*
X61468D01*
X57531Y69310D02*
X61468D01*
X90790Y83931D02*
Y87868D01*
X87010Y83931D02*
Y87868D01*
X167210Y72732D02*
Y76669D01*
X170990Y72732D02*
Y76669D01*
X257132Y88090D02*
X261069D01*
X257132Y84310D02*
X261069D01*
X246532Y84410D02*
X250468D01*
X246532Y88190D02*
X250468D01*
X170090Y22931D02*
Y26869D01*
X166310Y22931D02*
Y26869D01*
X47810Y20831D02*
Y24769D01*
X51590Y20831D02*
Y24769D01*
X55810Y20831D02*
Y24769D01*
X59590Y20831D02*
Y24769D01*
X54990Y33231D02*
Y37168D01*
X51210Y33231D02*
Y37168D01*
X39710Y33731D02*
Y37668D01*
X43490Y33731D02*
Y37668D01*
X99590Y84131D02*
Y88068D01*
X95810Y84131D02*
Y88068D01*
X44131Y65790D02*
X48068D01*
X44131Y62010D02*
X48068D01*
X72890Y51131D02*
Y55068D01*
X69110Y51131D02*
Y55068D01*
X73731Y67590D02*
X77668D01*
X73731Y63810D02*
X77668D01*
X208647Y20806D02*
Y25728D01*
Y76672D02*
Y81594D01*
X269435Y76672D02*
Y81594D01*
Y20806D02*
Y25728D01*
X208647Y81594D02*
X213568D01*
X264513D02*
X269435D01*
X264513Y20806D02*
X269435D01*
X208647D02*
X213568D01*
D16*
X191900Y52100D02*
Y56400D01*
Y52100D02*
X199300D01*
Y56400D01*
X191900D02*
X199300D01*
X196500Y88900D02*
X200800D01*
X196500Y81500D02*
Y88900D01*
Y81500D02*
X200800D01*
Y88900D01*
X202000D02*
X206300D01*
X202000Y81500D02*
Y88900D01*
Y81500D02*
X206300D01*
Y88900D01*
X99600Y56600D02*
Y60900D01*
X92200D02*
X99600D01*
X92200Y56600D02*
Y60900D01*
Y56600D02*
X99600D01*
X80650Y68526D02*
X84950D01*
X80650Y61126D02*
Y68526D01*
Y61126D02*
X84950D01*
Y68526D01*
X65500Y56700D02*
Y61000D01*
Y56700D02*
X72900D01*
Y61000D01*
X65500D02*
X72900D01*
X65000Y61300D02*
Y65600D01*
Y61300D02*
X72400D01*
Y65600D01*
X65000D02*
X72400D01*
X56400Y57500D02*
X60700D01*
Y64900D01*
X56400D02*
X60700D01*
X56400Y57500D02*
Y64900D01*
X91600Y56700D02*
Y61000D01*
X84200D02*
X91600D01*
X84200Y56700D02*
Y61000D01*
Y56700D02*
X91600D01*
X82000Y56600D02*
Y60900D01*
X74600D02*
X82000D01*
X74600Y56600D02*
Y60900D01*
Y56600D02*
X82000D01*
X60900Y86700D02*
X65200D01*
X60900Y79300D02*
Y86700D01*
Y79300D02*
X65200D01*
Y86700D01*
X55500Y74400D02*
Y78700D01*
Y74400D02*
X62900D01*
Y78700D01*
X55500D02*
X62900D01*
X183400Y56400D02*
X190800D01*
Y52100D02*
Y56400D01*
X183400Y52100D02*
X190800D01*
X183400D02*
Y56400D01*
X193800Y76500D02*
Y83900D01*
X189500Y76500D02*
X193800D01*
X189500D02*
Y83900D01*
X193800D01*
X172400Y31500D02*
Y38900D01*
X176700D01*
Y31500D02*
Y38900D01*
X172400Y31500D02*
X176700D01*
X39700Y69400D02*
Y76800D01*
X44000D01*
Y69400D02*
Y76800D01*
X39700Y69400D02*
X44000D01*
X44300Y11500D02*
Y18900D01*
X40000Y11500D02*
X44300D01*
X40000D02*
Y18900D01*
X44300D01*
X42400Y22500D02*
Y29900D01*
X46700D01*
Y22500D02*
Y29900D01*
X42400Y22500D02*
X46700D01*
X106600Y64700D02*
Y72100D01*
X102300Y64700D02*
X106600D01*
X102300D02*
Y72100D01*
X106600D01*
X102000Y77100D02*
Y84500D01*
X106300D01*
Y77100D02*
Y84500D01*
X102000Y77100D02*
X106300D01*
X165900Y31100D02*
Y38500D01*
X170200D01*
Y31100D02*
Y38500D01*
X165900Y31100D02*
X170200D01*
X200900Y13000D02*
X208300D01*
X200900D02*
Y17300D01*
X208300D01*
Y13000D02*
Y17300D01*
X210900Y14500D02*
X218300D01*
X210900D02*
Y18800D01*
X218300D01*
Y14500D02*
Y18800D01*
X184400Y49400D02*
X191800D01*
Y45100D02*
Y49400D01*
X184400Y45100D02*
X191800D01*
X184400D02*
Y49400D01*
X191900D02*
X199300D01*
Y45100D02*
Y49400D01*
X191900Y45100D02*
X199300D01*
X191900D02*
Y49400D01*
M02*
