G04*
G04 #@! TF.GenerationSoftware,Altium Limited,Altium Designer,26.3.0 (6)*
G04*
G04 Layer_Color=8388736*
%FSLAX25Y25*%
%MOIN*%
G70*
G04*
G04 #@! TF.SameCoordinates,8962AE64-8B79-459F-B45C-7CE8C08CF215*
G04*
G04*
G04 #@! TF.FilePolarity,Negative*
G04*
G01*
G75*
%ADD26R,0.01594X0.02397*%
%ADD27R,0.02397X0.01594*%
%ADD28R,0.04528X0.02362*%
%ADD29R,0.04528X0.01181*%
%ADD31R,0.06102X0.05118*%
%ADD32R,0.04724X0.04724*%
G04:AMPARAMS|DCode=33|XSize=33.06mil|YSize=9.55mil|CornerRadius=4.77mil|HoleSize=0mil|Usage=FLASHONLY|Rotation=270.000|XOffset=0mil|YOffset=0mil|HoleType=Round|Shape=RoundedRectangle|*
%AMROUNDEDRECTD33*
21,1,0.03306,0.00000,0,0,270.0*
21,1,0.02351,0.00955,0,0,270.0*
1,1,0.00955,0.00000,-0.01176*
1,1,0.00955,0.00000,0.01176*
1,1,0.00955,0.00000,0.01176*
1,1,0.00955,0.00000,-0.01176*
%
%ADD33ROUNDEDRECTD33*%
G04:AMPARAMS|DCode=35|XSize=9.55mil|YSize=33.06mil|CornerRadius=4.77mil|HoleSize=0mil|Usage=FLASHONLY|Rotation=270.000|XOffset=0mil|YOffset=0mil|HoleType=Round|Shape=RoundedRectangle|*
%AMROUNDEDRECTD35*
21,1,0.00955,0.02351,0,0,270.0*
21,1,0.00000,0.03306,0,0,270.0*
1,1,0.00955,-0.01176,0.00000*
1,1,0.00955,-0.01176,0.00000*
1,1,0.00955,0.01176,0.00000*
1,1,0.00955,0.01176,0.00000*
%
%ADD35ROUNDEDRECTD35*%
%ADD36R,0.00955X0.03306*%
G04:AMPARAMS|DCode=37|XSize=53.43mil|YSize=22.53mil|CornerRadius=11.26mil|HoleSize=0mil|Usage=FLASHONLY|Rotation=0.000|XOffset=0mil|YOffset=0mil|HoleType=Round|Shape=RoundedRectangle|*
%AMROUNDEDRECTD37*
21,1,0.05343,0.00000,0,0,0.0*
21,1,0.03091,0.02253,0,0,0.0*
1,1,0.02253,0.01545,0.00000*
1,1,0.02253,-0.01545,0.00000*
1,1,0.02253,-0.01545,0.00000*
1,1,0.02253,0.01545,0.00000*
%
%ADD37ROUNDEDRECTD37*%
%ADD38R,0.05343X0.02253*%
%ADD39C,0.00000*%
%ADD40R,0.03450X0.01875*%
%ADD41R,0.01875X0.03450*%
%ADD42R,0.02662X0.02308*%
%ADD43R,0.02308X0.02662*%
G04:AMPARAMS|DCode=44|XSize=24.26mil|YSize=26.62mil|CornerRadius=7.13mil|HoleSize=0mil|Usage=FLASHONLY|Rotation=0.000|XOffset=0mil|YOffset=0mil|HoleType=Round|Shape=RoundedRectangle|*
%AMROUNDEDRECTD44*
21,1,0.02426,0.01235,0,0,0.0*
21,1,0.00999,0.02662,0,0,0.0*
1,1,0.01427,0.00500,-0.00618*
1,1,0.01427,-0.00500,-0.00618*
1,1,0.01427,-0.00500,0.00618*
1,1,0.01427,0.00500,0.00618*
%
%ADD44ROUNDEDRECTD44*%
%ADD45R,0.05812X0.04040*%
G04:AMPARAMS|DCode=46|XSize=42.37mil|YSize=83.71mil|CornerRadius=3.47mil|HoleSize=0mil|Usage=FLASHONLY|Rotation=90.000|XOffset=0mil|YOffset=0mil|HoleType=Round|Shape=RoundedRectangle|*
%AMROUNDEDRECTD46*
21,1,0.04237,0.07677,0,0,90.0*
21,1,0.03543,0.08371,0,0,90.0*
1,1,0.00694,0.03839,0.01772*
1,1,0.00694,0.03839,-0.01772*
1,1,0.00694,-0.03839,-0.01772*
1,1,0.00694,-0.03839,0.01772*
%
%ADD46ROUNDEDRECTD46*%
G04:AMPARAMS|DCode=47|XSize=24.26mil|YSize=26.62mil|CornerRadius=7.13mil|HoleSize=0mil|Usage=FLASHONLY|Rotation=90.000|XOffset=0mil|YOffset=0mil|HoleType=Round|Shape=RoundedRectangle|*
%AMROUNDEDRECTD47*
21,1,0.02426,0.01235,0,0,90.0*
21,1,0.00999,0.02662,0,0,90.0*
1,1,0.01427,0.00618,0.00500*
1,1,0.01427,0.00618,-0.00500*
1,1,0.01427,-0.00618,-0.00500*
1,1,0.01427,-0.00618,0.00500*
%
%ADD47ROUNDEDRECTD47*%
%ADD48R,0.03450X0.03450*%
%ADD49R,0.05024X0.05024*%
%ADD50R,0.08071X0.08071*%
G04:AMPARAMS|DCode=51|XSize=130.95mil|YSize=83.71mil|CornerRadius=3.52mil|HoleSize=0mil|Usage=FLASHONLY|Rotation=90.000|XOffset=0mil|YOffset=0mil|HoleType=Round|Shape=RoundedRectangle|*
%AMROUNDEDRECTD51*
21,1,0.13095,0.07667,0,0,90.0*
21,1,0.12392,0.08371,0,0,90.0*
1,1,0.00704,0.03834,0.06196*
1,1,0.00704,0.03834,-0.06196*
1,1,0.00704,-0.03834,-0.06196*
1,1,0.00704,-0.03834,0.06196*
%
%ADD51ROUNDEDRECTD51*%
%ADD52C,0.06324*%
%ADD53R,0.06324X0.06324*%
%ADD54C,0.04828*%
G04:AMPARAMS|DCode=55|XSize=39.37mil|YSize=70.87mil|CornerRadius=19.68mil|HoleSize=0mil|Usage=FLASHONLY|Rotation=270.000|XOffset=0mil|YOffset=0mil|HoleType=Round|Shape=RoundedRectangle|*
%AMROUNDEDRECTD55*
21,1,0.03937,0.03150,0,0,270.0*
21,1,0.00000,0.07087,0,0,270.0*
1,1,0.03937,-0.01575,0.00000*
1,1,0.03937,-0.01575,0.00000*
1,1,0.03937,0.01575,0.00000*
1,1,0.03937,0.01575,0.00000*
%
%ADD55ROUNDEDRECTD55*%
G04:AMPARAMS|DCode=56|XSize=39.37mil|YSize=86.61mil|CornerRadius=19.68mil|HoleSize=0mil|Usage=FLASHONLY|Rotation=270.000|XOffset=0mil|YOffset=0mil|HoleType=Round|Shape=RoundedRectangle|*
%AMROUNDEDRECTD56*
21,1,0.03937,0.04724,0,0,270.0*
21,1,0.00000,0.08661,0,0,270.0*
1,1,0.03937,-0.02362,0.00000*
1,1,0.03937,-0.02362,0.00000*
1,1,0.03937,0.02362,0.00000*
1,1,0.03937,0.02362,0.00000*
%
%ADD56ROUNDEDRECTD56*%
%ADD57R,0.04828X0.04828*%
%ADD58C,0.02662*%
G36*
X242781Y54940D02*
Y60452D01*
X245734D01*
X248293Y57893D01*
Y54940D01*
X242781D01*
D02*
G37*
D26*
X34850Y71200D02*
D03*
X37350D02*
D03*
D27*
X37600Y84450D02*
D03*
Y86950D02*
D03*
X35725Y79325D02*
D03*
Y76825D02*
D03*
X32600Y34950D02*
D03*
Y32450D02*
D03*
X34600Y22950D02*
D03*
Y20450D02*
D03*
Y14950D02*
D03*
Y17450D02*
D03*
D28*
X27084Y30649D02*
D03*
Y11751D02*
D03*
X27612Y94806D02*
D03*
Y69609D02*
D03*
X27084Y33798D02*
D03*
Y8602D02*
D03*
X27612Y91657D02*
D03*
Y72759D02*
D03*
D29*
X27084Y14310D02*
D03*
Y24153D02*
D03*
Y20216D02*
D03*
Y18247D02*
D03*
Y22184D02*
D03*
Y26121D02*
D03*
X27612Y89098D02*
D03*
Y87129D02*
D03*
Y85161D02*
D03*
Y83192D02*
D03*
Y81224D02*
D03*
Y79255D02*
D03*
Y77287D02*
D03*
Y75318D02*
D03*
X27084Y16279D02*
D03*
Y28090D02*
D03*
D31*
X157250Y85058D02*
D03*
X125950D02*
D03*
X157250Y35058D02*
D03*
X125950D02*
D03*
X157250Y17342D02*
D03*
X125950D02*
D03*
Y67342D02*
D03*
X157250D02*
D03*
D32*
X182100Y21466D02*
D03*
Y29734D02*
D03*
D33*
X75641Y86804D02*
D03*
Y71722D02*
D03*
X79578D02*
D03*
X77610D02*
D03*
X73673D02*
D03*
X71704D02*
D03*
Y86804D02*
D03*
X73673D02*
D03*
X77610D02*
D03*
D35*
X83183Y83200D02*
D03*
X68100Y75326D02*
D03*
Y79263D02*
D03*
X83183Y81231D02*
D03*
Y79263D02*
D03*
Y77294D02*
D03*
Y75326D02*
D03*
X68100Y77294D02*
D03*
Y81231D02*
D03*
Y83200D02*
D03*
D36*
X79578Y86804D02*
D03*
D37*
X117842Y64200D02*
D03*
Y78700D02*
D03*
X110358Y60460D02*
D03*
Y74960D02*
D03*
D38*
Y67940D02*
D03*
Y82440D02*
D03*
D39*
X35549Y46700D02*
G03*
X35549Y46700I-2449J0D01*
G01*
Y51700D02*
G03*
X35549Y51700I-2449J0D01*
G01*
Y56700D02*
G03*
X35549Y56700I-2449J0D01*
G01*
D40*
X211482Y64586D02*
D03*
Y74625D02*
D03*
Y61239D02*
D03*
Y57893D02*
D03*
Y71279D02*
D03*
Y67932D02*
D03*
Y54546D02*
D03*
X266600Y74625D02*
D03*
Y64586D02*
D03*
Y67932D02*
D03*
Y61239D02*
D03*
Y71279D02*
D03*
Y54546D02*
D03*
Y57893D02*
D03*
Y47853D02*
D03*
Y51200D02*
D03*
Y44507D02*
D03*
Y37814D02*
D03*
Y41161D02*
D03*
Y34468D02*
D03*
Y27775D02*
D03*
Y31121D02*
D03*
X211482Y51200D02*
D03*
Y47853D02*
D03*
Y44507D02*
D03*
Y41161D02*
D03*
Y37814D02*
D03*
Y34468D02*
D03*
Y31121D02*
D03*
Y27775D02*
D03*
D41*
X249080Y78759D02*
D03*
X225655D02*
D03*
X222309D02*
D03*
X255773D02*
D03*
X245734D02*
D03*
X242387D02*
D03*
X235695D02*
D03*
X229002D02*
D03*
X218962D02*
D03*
X215616D02*
D03*
X232348D02*
D03*
X239041D02*
D03*
X262466D02*
D03*
X259120D02*
D03*
X255773Y23641D02*
D03*
X252427D02*
D03*
X215616D02*
D03*
X218962D02*
D03*
X225655D02*
D03*
X239041D02*
D03*
X232348D02*
D03*
X262466D02*
D03*
X235695D02*
D03*
X249080D02*
D03*
X252427Y78759D02*
D03*
X222309Y23641D02*
D03*
X229002D02*
D03*
X242387D02*
D03*
X245734D02*
D03*
X259120D02*
D03*
D42*
X58600Y59448D02*
D03*
X191600Y78448D02*
D03*
X174600Y36952D02*
D03*
X168100Y36552D02*
D03*
X204100Y86952D02*
D03*
X42100Y13448D02*
D03*
X44600Y27952D02*
D03*
X82750Y63074D02*
D03*
X41900Y71348D02*
D03*
X44600Y24448D02*
D03*
X42100Y16952D02*
D03*
X82750Y66578D02*
D03*
X58600Y62952D02*
D03*
X63000Y81248D02*
D03*
X168100Y33048D02*
D03*
X198600Y86952D02*
D03*
Y83448D02*
D03*
X204100D02*
D03*
X63000Y84752D02*
D03*
X104400Y70152D02*
D03*
X191600Y81952D02*
D03*
X174600Y33448D02*
D03*
X41900Y74852D02*
D03*
X104400Y66648D02*
D03*
X104200Y82552D02*
D03*
Y79048D02*
D03*
D43*
X80052Y58800D02*
D03*
X67448D02*
D03*
X185348Y54200D02*
D03*
X186348Y47200D02*
D03*
X97652Y58800D02*
D03*
X48752Y88400D02*
D03*
X193848Y54200D02*
D03*
X197352D02*
D03*
X188852D02*
D03*
X66948Y63400D02*
D03*
X212848Y16700D02*
D03*
X94148Y58800D02*
D03*
X70952D02*
D03*
X70452Y63400D02*
D03*
X89652Y58900D02*
D03*
X86148D02*
D03*
X76548Y58800D02*
D03*
X60952Y76500D02*
D03*
X57448D02*
D03*
X45248Y88400D02*
D03*
X202848Y15200D02*
D03*
X206352D02*
D03*
X216352Y16700D02*
D03*
X189852Y47200D02*
D03*
X197352D02*
D03*
X193848D02*
D03*
D44*
X250193Y86300D02*
D03*
X257407Y86200D02*
D03*
X260793D02*
D03*
X246807Y86300D02*
D03*
X57807Y71200D02*
D03*
X77393Y65700D02*
D03*
X47793Y63900D02*
D03*
X61193Y71200D02*
D03*
X44407Y63900D02*
D03*
X74007Y65700D02*
D03*
D45*
X181100Y76460D02*
D03*
Y83940D02*
D03*
D46*
X67100Y39255D02*
D03*
Y30200D02*
D03*
Y21145D02*
D03*
D47*
X53100Y36893D02*
D03*
X41600Y34007D02*
D03*
X169100Y76393D02*
D03*
X168200Y23207D02*
D03*
X97700Y84407D02*
D03*
X88900Y84207D02*
D03*
X71000Y51407D02*
D03*
X53100Y33507D02*
D03*
X57700Y24493D02*
D03*
X49700D02*
D03*
X41600Y37393D02*
D03*
X88900Y87593D02*
D03*
X97700Y87793D02*
D03*
X169100Y73007D02*
D03*
X168200Y26593D02*
D03*
X49700Y21107D02*
D03*
X57700D02*
D03*
X71000Y54793D02*
D03*
D48*
X266600Y78759D02*
D03*
X211482D02*
D03*
X266600Y23641D02*
D03*
X211482D02*
D03*
D49*
X239041Y57696D02*
D03*
X232545D02*
D03*
X245537Y51200D02*
D03*
X239041D02*
D03*
X245537Y44704D02*
D03*
X239041D02*
D03*
X232545D02*
D03*
Y51200D02*
D03*
D50*
X75641Y79263D02*
D03*
D51*
X92100Y30200D02*
D03*
D52*
X36100Y95500D02*
D03*
X56100D02*
D03*
X66100D02*
D03*
X76100D02*
D03*
X86100D02*
D03*
X106100D02*
D03*
X116100D02*
D03*
X126100D02*
D03*
X136100D02*
D03*
X146100D02*
D03*
X156100D02*
D03*
X166100D02*
D03*
X176100D02*
D03*
X186100D02*
D03*
X196100D02*
D03*
X206100D02*
D03*
X216100D02*
D03*
X226100D02*
D03*
X236100D02*
D03*
X246100D02*
D03*
X256100D02*
D03*
X96100D02*
D03*
X46100D02*
D03*
X256600Y5300D02*
D03*
X36600D02*
D03*
X96600D02*
D03*
X246600D02*
D03*
X236600D02*
D03*
X226600D02*
D03*
X216600D02*
D03*
X206600D02*
D03*
X196600D02*
D03*
X186600D02*
D03*
X176600D02*
D03*
X166600D02*
D03*
X156600D02*
D03*
X146600D02*
D03*
X136600D02*
D03*
X126600D02*
D03*
X116600D02*
D03*
X106600D02*
D03*
X86600D02*
D03*
X76600D02*
D03*
X56600D02*
D03*
X46600D02*
D03*
X66600D02*
D03*
D53*
X266100Y95500D02*
D03*
X266600Y5300D02*
D03*
D54*
X144200Y49600D02*
D03*
D55*
X25348Y99216D02*
D03*
Y65200D02*
D03*
X24821Y38208D02*
D03*
Y4192D02*
D03*
D56*
X9600Y99216D02*
D03*
Y65200D02*
D03*
X9072Y38208D02*
D03*
Y4192D02*
D03*
D57*
X138700Y49600D02*
D03*
D58*
X52700Y87900D02*
D03*
M02*
