G04*
G04 #@! TF.GenerationSoftware,Altium Limited,Altium Designer,26.3.0 (6)*
G04*
G04 Layer_Physical_Order=3*
G04 Layer_Color=32768*
%FSLAX25Y25*%
%MOIN*%
G70*
G04*
G04 #@! TF.SameCoordinates,8962AE64-8B79-459F-B45C-7CE8C08CF215*
G04*
G04*
G04 #@! TF.FilePolarity,Negative*
G04*
G01*
G75*
%ADD71C,0.04000*%
%ADD72C,0.08016*%
%ADD73C,0.06953*%
%ADD74C,0.06795*%
%ADD75C,0.04984*%
%ADD76C,0.05200*%
D71*
X1600Y1200D02*
X271600D01*
Y101200D01*
X1600D02*
X271600D01*
X1600Y1200D02*
Y101200D01*
D72*
X36100Y95500D02*
D03*
X56100D02*
D03*
X66100D02*
D03*
X76100D02*
D03*
X86100D02*
D03*
X106100D02*
D03*
X116100D02*
D03*
X126100D02*
D03*
X136100D02*
D03*
X146100D02*
D03*
X156100D02*
D03*
X166100D02*
D03*
X176100D02*
D03*
X186100D02*
D03*
X196100D02*
D03*
X206100D02*
D03*
X216100D02*
D03*
X226100D02*
D03*
X236100D02*
D03*
X246100D02*
D03*
X256100D02*
D03*
X96100D02*
D03*
X266600Y5300D02*
D03*
X96600D02*
D03*
X246600D02*
D03*
X236600D02*
D03*
X226600D02*
D03*
X216600D02*
D03*
X206600D02*
D03*
X196600D02*
D03*
X186600D02*
D03*
X176600D02*
D03*
X166600D02*
D03*
X156600D02*
D03*
X146600D02*
D03*
X136600D02*
D03*
X126600D02*
D03*
X116600D02*
D03*
X106600D02*
D03*
X86600D02*
D03*
X76600D02*
D03*
X56600D02*
D03*
X46600D02*
D03*
X66600D02*
D03*
D73*
X144200Y49600D02*
D03*
X138700D02*
D03*
D74*
X33100Y51700D02*
D03*
Y46700D02*
D03*
Y56700D02*
D03*
D75*
X220200Y63000D02*
D03*
X190600Y74600D02*
D03*
X176600Y80200D02*
D03*
X267200Y12300D02*
D03*
X59600Y56200D02*
D03*
X80100Y53200D02*
D03*
X165948Y36548D02*
D03*
X185500Y70900D02*
D03*
X201061Y61239D02*
D03*
X219400Y59700D02*
D03*
X65200Y58700D02*
D03*
X193821Y71279D02*
D03*
X205900Y65700D02*
D03*
X216746Y54546D02*
D03*
X174600Y53200D02*
D03*
X34600Y26200D02*
D03*
X175100Y49700D02*
D03*
X41100Y26700D02*
D03*
X79600Y89900D02*
D03*
X83100Y87700D02*
D03*
X63600Y68200D02*
D03*
X51100Y84700D02*
D03*
X33600Y82200D02*
D03*
X41600Y86200D02*
D03*
X77100Y25492D02*
D03*
X81100Y25992D02*
D03*
X192600Y52200D02*
D03*
X196600Y50700D02*
D03*
X171500Y39800D02*
D03*
X190200Y41700D02*
D03*
X221700Y42500D02*
D03*
X53300Y16800D02*
D03*
X160600Y56700D02*
D03*
X105000Y60100D02*
D03*
X164981Y59355D02*
D03*
X112900Y64600D02*
D03*
X186800Y41400D02*
D03*
X217261Y41161D02*
D03*
X216100Y34900D02*
D03*
X76552Y55848D02*
D03*
X44500Y61500D02*
D03*
X101800Y75900D02*
D03*
X197639Y31161D02*
D03*
X206968Y34468D02*
D03*
X259120Y19620D02*
D03*
X218962Y32959D02*
D03*
X225662Y33159D02*
D03*
X239162Y32559D02*
D03*
X232362Y32859D02*
D03*
X235808Y28292D02*
D03*
X249108Y28192D02*
D03*
X222308Y28892D02*
D03*
X229008Y28592D02*
D03*
X242408Y28292D02*
D03*
X245762Y32559D02*
D03*
D76*
X249084Y73923D02*
D03*
X225655Y73755D02*
D03*
X222517Y71200D02*
D03*
X245691Y73699D02*
D03*
X242387Y71987D02*
D03*
X235600Y71700D02*
D03*
X229100Y72200D02*
D03*
X218600Y74700D02*
D03*
X215600Y70500D02*
D03*
X232600Y74200D02*
D03*
X239100D02*
D03*
M02*
